<svg xmlns="http://www.w3.org/2000/svg" xmlns:xlink="http://www.w3.org/1999/xlink" width="500" zoomAndPan="magnify" viewBox="0 0 375 374.999991" height="500" preserveAspectRatio="xMidYMid meet" version="1.0"><defs><clipPath id="id1"><path d="M 0 21.085938 L 374 21.085938 L 374 340 L 0 340 Z M 0 21.085938 " clip-rule="nonzero"/></clipPath><clipPath id="id2"><path d="M 0 21.085938 L 374 21.085938 L 374 340 L 0 340 Z M 0 21.085938 " clip-rule="nonzero"/></clipPath><clipPath id="id3"><path d="M 131.335938 152.722656 L 281.851562 152.722656 L 281.851562 208.972656 L 131.335938 208.972656 Z M 131.335938 152.722656 " clip-rule="nonzero"/></clipPath></defs><g clip-path="url(#id1)"><path fill="#323130" d="M 371.40625 261.679688 C 368.171875 272.90625 361.113281 283.46875 350.84375 289.363281 C 341.28125 294.859375 329.210938 296.4375 318.722656 292.75 C 319.238281 306.511719 311.566406 320.003906 299.359375 326.902344 C 283.84375 335.667969 264.289062 334.003906 249.566406 324.417969 C 245.523438 321.78125 241.796875 318.648438 238.550781 315.085938 C 236.234375 312.535156 233.980469 309.734375 232.222656 306.714844 C 229.199219 312.308594 225.183594 317.335938 220.4375 321.625 C 213.238281 328.109375 204.546875 332.929688 195.371094 335.980469 C 185.609375 339.226562 175.320312 340.410156 165.0625 339.648438 C 153.53125 338.792969 142.226562 335.671875 131.625 331.128906 C 126.1875 328.800781 120.886719 326.117188 115.789062 323.105469 C 114.875 322.566406 113.964844 322.015625 113.054688 321.457031 C 100.960938 327.496094 87.214844 330.382812 73.800781 330.222656 C 56.835938 330.027344 39.988281 324.511719 26.828125 313.675781 C 14.679688 303.679688 5.816406 289.527344 2.273438 274.1875 C 0.503906 266.550781 0.0234375 258.664062 1.070312 250.886719 C 2.195312 242.570312 5.167969 234.601562 9.234375 227.28125 C 17.679688 212.085938 30.746094 200 43.765625 188.757812 C 43.773438 188.753906 43.773438 188.753906 43.78125 188.746094 C 42.175781 183.441406 40.871094 178.042969 39.871094 172.585938 C 37.644531 160.390625 36.890625 147.941406 37.835938 135.574219 C 38.789062 123.210938 41.382812 110.945312 45.757812 99.332031 C 49.5625 89.207031 54.75 79.601562 61.082031 70.835938 C 67.339844 62.160156 74.726562 54.296875 82.988281 47.507812 C 91.222656 40.742188 100.367188 35.074219 110.125 30.777344 C 119.875 26.472656 130.28125 23.59375 140.890625 22.398438 C 151.511719 21.214844 162.320312 21.675781 172.8125 23.695312 C 183.433594 25.742188 193.75 29.300781 203.304688 34.378906 C 211.65625 38.804688 219.320312 44.421875 225.972656 51.121094 C 226.421875 51.558594 226.863281 52.015625 227.292969 52.46875 C 245.15625 41.265625 270.035156 45.503906 285.597656 59.101562 C 294.457031 66.84375 300.691406 77.296875 304.265625 88.441406 C 306.078125 94.082031 307.226562 99.9375 307.75 105.839844 C 308.339844 112.46875 307.847656 119.0625 307.601562 125.703125 C 307.339844 132.652344 307.578125 139.652344 310.265625 146.171875 C 312.59375 151.804688 316.421875 156.707031 320.566406 161.109375 C 324.925781 165.734375 329.703125 169.933594 334.285156 174.316406 C 339.242188 179.046875 344.054688 183.917969 348.550781 189.089844 C 357.46875 199.355469 365.160156 210.816406 369.628906 223.753906 C 373.832031 235.921875 374.992188 249.214844 371.40625 261.679688 " fill-opacity="1" fill-rule="nonzero"/></g><path fill="#4b3737" d="M 241.445312 131.765625 C 242.402344 132.714844 243.050781 134.003906 242.8125 135.371094 C 242.566406 136.804688 241.550781 137.929688 240.402344 138.75 C 237.140625 141.070312 232.496094 141.449219 228.683594 140.636719 C 225.808594 140.027344 221.949219 138.316406 221.882812 134.890625 C 221.964844 130.984375 227.300781 129.28125 230.394531 128.910156 C 234.042969 128.476562 238.707031 129.046875 241.445312 131.765625 Z M 190.125 134.746094 C 190.136719 134.953125 190.125 135.164062 190.085938 135.371094 C 189.839844 136.804688 188.816406 137.929688 187.667969 138.75 C 184.40625 141.070312 179.769531 141.449219 175.949219 140.636719 C 175.902344 140.628906 175.859375 140.613281 175.808594 140.609375 C 180.710938 138.964844 185.503906 137.03125 190.125 134.746094 Z M 322.988281 201.464844 C 320.910156 209.847656 314.925781 217.105469 307.316406 221.113281 C 299.390625 225.292969 289.308594 226.347656 280.558594 223.753906 C 279.339844 226.828125 277.894531 229.820312 276.207031 232.691406 C 271.929688 239.976562 266.105469 246.273438 259.359375 251.339844 C 244.984375 262.132812 227.0625 267.109375 209.226562 267.207031 C 189.652344 267.3125 170.027344 262.128906 152.316406 253.996094 C 139.464844 248.101562 127.085938 240.03125 117.988281 229.09375 C 117.070312 230.261719 116.101562 231.394531 115.089844 232.488281 C 110.03125 237.980469 103.664062 243.128906 96.449219 245.410156 C 95.785156 245.621094 95 245.515625 94.558594 244.910156 C 94.148438 244.335938 94.371094 243.707031 94.960938 243.402344 C 97.949219 241.804688 100.851562 240.195312 103.628906 238.25 C 106.285156 236.375 108.769531 234.257812 111.023438 231.929688 C 112.734375 230.167969 114.332031 228.304688 115.816406 226.34375 C 116.347656 225.65625 116.855469 224.953125 117.347656 224.246094 C 119.242188 221.539062 120.929688 218.6875 122.386719 215.734375 C 129.253906 201.875 131.140625 186.261719 130.507812 170.953125 C 130.191406 163.328125 129.324219 155.75 128.1875 148.21875 C 123.707031 148.304688 119.234375 148.242188 114.78125 148.015625 C 113.070312 147.929688 112.75 145.6875 114.636719 145.648438 C 118.996094 145.578125 123.363281 145.476562 127.730469 145.300781 C 128.578125 145.269531 129.429688 145.234375 130.28125 145.1875 C 135.703125 144.933594 141.121094 144.53125 146.511719 143.867188 C 153.957031 142.957031 161.355469 141.5625 168.578125 139.535156 C 169.511719 139.28125 170.441406 139.003906 171.363281 138.71875 C 173.351562 138.117188 175.328125 137.453125 177.292969 136.742188 C 181.203125 135.324219 185.03125 133.671875 188.742188 131.796875 C 189.488281 131.417969 190.234375 131.03125 190.972656 130.632812 C 202.648438 124.359375 213.039062 115.789062 220.90625 105.007812 C 224.0625 100.683594 226.757812 96.027344 228.875 91.121094 C 229.324219 90.089844 229.742188 89.054688 230.128906 88 C 231.339844 84.785156 232.289062 81.472656 232.957031 78.09375 C 233.207031 76.84375 235.511719 77.378906 235.3125 78.632812 C 234.625 82.882812 233.496094 87.003906 231.996094 90.964844 C 233.191406 92.992188 234.273438 95.09375 235.324219 97.175781 C 237.042969 100.597656 238.671875 104.074219 240.253906 107.574219 C 243.289062 114.25 246.253906 120.972656 249.777344 127.417969 C 256.277344 139.308594 264.847656 150.566406 277.378906 156.496094 C 278.253906 156.90625 279.140625 157.292969 280.042969 157.644531 C 280.8125 157.953125 281.589844 158.226562 282.375 158.472656 C 287.785156 160.234375 293.570312 160.835938 299.1875 159.808594 C 300.351562 159.597656 301.40625 161.21875 299.972656 161.539062 C 294.21875 162.84375 288.425781 162.554688 282.902344 161.101562 C 283.800781 165.710938 284.566406 170.355469 285.140625 175.027344 C 287.992188 172.605469 291.503906 170.90625 295.21875 170.109375 C 303.546875 168.328125 311.847656 171.730469 317.339844 178.0625 C 322.902344 184.46875 325.03125 193.234375 322.988281 201.464844 Z M 87.070312 211.28125 C 86.640625 212.101562 86.183594 212.898438 85.699219 213.699219 C 84.117188 216.375 82.324219 218.925781 80.316406 221.324219 C 79.25 222.589844 76.363281 221.164062 77.496094 219.683594 C 79.367188 217.234375 81.09375 214.695312 82.65625 212.054688 C 81.765625 211.496094 80.914062 210.894531 80.113281 210.277344 C 76.308594 207.292969 73.390625 203.152344 71.972656 198.519531 C 68.996094 188.757812 72.457031 177.789062 80.816406 171.835938 C 84.058594 169.53125 87.832031 168.042969 91.75 167.507812 C 91.476562 165.433594 91.089844 163.367188 90.597656 161.328125 C 90.191406 159.644531 92.976562 159.445312 93.34375 160.875 C 93.878906 162.992188 94.320312 165.136719 94.648438 167.28125 C 94.769531 168.050781 94.878906 168.820312 94.96875 169.578125 C 96.601562 183.113281 94.230469 197.046875 88.117188 209.273438 C 87.78125 209.953125 87.429688 210.617188 87.070312 211.28125 Z M 368.15625 229.96875 C 364.882812 217.25 358.222656 205.738281 350.101562 195.511719 C 341.980469 185.277344 332.328125 176.585938 322.941406 167.570312 C 318.671875 163.464844 314.523438 159.144531 311.191406 154.222656 C 307.738281 149.113281 305.457031 143.449219 304.625 137.324219 C 303.675781 130.34375 304.421875 123.285156 304.652344 116.289062 C 304.847656 110.441406 304.542969 104.578125 303.503906 98.808594 C 301.503906 87.71875 297.144531 76.980469 290.125 68.097656 C 283.238281 59.394531 273.863281 53.125 263.078125 50.402344 C 252.875 47.820312 241.65625 48.554688 232.167969 53.253906 C 231.222656 53.722656 230.300781 54.222656 229.398438 54.757812 C 230.796875 56.304688 232.128906 57.878906 233.421875 59.503906 C 234.300781 60.621094 232.324219 61.316406 231.59375 60.421875 C 230.324219 58.863281 229.003906 57.351562 227.613281 55.886719 C 226.921875 55.132812 226.207031 54.394531 225.472656 53.679688 C 225.144531 53.347656 224.816406 53.027344 224.488281 52.707031 C 219.515625 47.910156 213.992188 43.695312 208.125 40.078125 C 199.273438 34.617188 189.652344 30.539062 179.582031 27.929688 C 169.574219 25.332031 159.140625 24.21875 148.808594 24.667969 C 138.386719 25.121094 128.125 27.195312 118.332031 30.785156 C 108.5625 34.355469 99.359375 39.363281 90.960938 45.480469 C 82.511719 51.632812 74.90625 58.886719 68.316406 66.992188 C 61.722656 75.101562 56.148438 84.046875 51.871094 93.578125 C 47.011719 104.382812 43.757812 115.929688 42.128906 127.660156 C 40.445312 139.738281 40.414062 152.042969 41.90625 164.140625 C 42.832031 171.6875 44.386719 179.136719 46.488281 186.425781 C 46.710938 187.199219 46.945312 187.976562 47.175781 188.746094 C 48.257812 192.296875 49.46875 195.800781 50.804688 199.265625 C 51.339844 200.652344 51.886719 202.039062 52.445312 203.417969 C 53 204.769531 53.425781 206.183594 54.035156 207.5 C 54.722656 208.980469 52.011719 209.238281 51.425781 207.96875 C 50.75 206.515625 49.933594 205.140625 49.28125 203.679688 C 48.640625 202.246094 48.035156 200.808594 47.460938 199.34375 C 46.390625 196.636719 45.40625 193.886719 44.519531 191.109375 C 33.765625 200.746094 23.28125 210.910156 15.363281 223.015625 C 10.789062 230.011719 7.175781 237.621094 5.207031 245.769531 C 3.421875 253.152344 3.175781 260.867188 4.285156 268.378906 C 6.503906 283.382812 14.070312 297.589844 24.941406 308.128906 C 36.554688 319.386719 51.894531 325.738281 67.933594 327.109375 C 82.4375 328.347656 96.960938 325.535156 110.195312 319.671875 C 111.25 319.210938 112.285156 318.726562 113.316406 318.21875 C 114.367188 317.707031 115.40625 317.179688 116.4375 316.628906 C 118.242188 315.664062 120.019531 314.636719 121.765625 313.570312 C 122.691406 312.996094 124.496094 314.398438 123.394531 315.203125 C 121.046875 316.90625 118.59375 318.464844 116.058594 319.875 C 120.3125 322.386719 124.65625 324.726562 129.117188 326.804688 C 139.164062 331.472656 149.832031 334.902344 160.847656 336.261719 C 170.722656 337.476562 180.726562 337.023438 190.347656 334.390625 C 199.347656 331.929688 207.910156 327.800781 215.261719 322.03125 C 221.554688 317.082031 226.988281 310.90625 230.71875 303.804688 C 230.652344 303.671875 230.59375 303.527344 230.53125 303.386719 C 230.226562 302.6875 230.847656 302.289062 231.484375 302.289062 C 231.847656 302.289062 232.230469 302.425781 232.429688 302.703125 C 232.796875 303.195312 233.152344 303.6875 233.511719 304.179688 C 235.609375 307.050781 237.671875 309.921875 240.078125 312.558594 C 242.757812 315.488281 245.714844 318.21875 248.933594 320.554688 C 255.449219 325.28125 263.023438 328.59375 271.050781 329.609375 C 279.214844 330.632812 287.65625 329.445312 295.117188 325.9375 C 302.339844 322.546875 308.246094 316.957031 312.027344 309.9375 C 314.863281 304.664062 316.558594 298.6875 316.605469 292.707031 C 316.617188 292.445312 316.609375 292.191406 316.609375 291.929688 C 316.605469 291.003906 316.550781 290.085938 316.457031 289.167969 C 316.289062 287.492188 315.984375 285.816406 315.527344 284.175781 C 315.269531 283.230469 317.015625 283.238281 317.273438 284.082031 C 317.871094 286.042969 318.273438 288.027344 318.507812 290.011719 C 326.457031 292.9375 335.703125 292.472656 343.488281 289.5 C 354.125 285.425781 362.046875 276.382812 366.300781 265.992188 C 370.988281 254.535156 371.226562 241.875 368.15625 229.96875 " fill-opacity="1" fill-rule="nonzero"/><path fill="#422d2d" d="M 244.589844 192.222656 C 246.269531 186.679688 245.804688 180.667969 243.4375 175.382812 C 242.386719 173.042969 240.953125 170.839844 239.210938 168.941406 C 236.886719 170.214844 234.75 171.824219 232.980469 173.582031 C 227.414062 179.203125 223.527344 188.074219 226.367188 195.9375 C 227.578125 199.273438 229.972656 202.039062 233.207031 203.542969 C 233.988281 203.910156 234.796875 204.195312 235.625 204.410156 C 235.902344 204.476562 236.175781 204.542969 236.460938 204.597656 C 240.164062 201.234375 243.125 197.039062 244.589844 192.222656 Z M 164.75 194.285156 C 163.199219 196.457031 161.363281 198.347656 159.453125 200.1875 C 152.855469 196.71875 147.609375 190.328125 146.019531 183.046875 C 145.226562 179.457031 145.292969 175.542969 146.8125 172.140625 C 148.292969 168.851562 150.953125 166.277344 154.316406 164.964844 C 155.355469 164.5625 156.40625 164.277344 157.472656 164.113281 C 157.980469 164.03125 158.496094 163.96875 159.015625 163.941406 C 160.980469 163.820312 162.976562 164.058594 164.910156 164.574219 C 165.558594 164.746094 166.199219 164.949219 166.828125 165.1875 C 167.074219 165.269531 167.3125 165.359375 167.558594 165.457031 C 167.558594 165.46875 167.566406 165.492188 167.574219 165.507812 C 170.441406 171.925781 170.933594 179.242188 168.871094 185.976562 C 167.953125 188.953125 166.566406 191.75 164.75 194.285156 " fill-opacity="1" fill-rule="nonzero"/><path fill="#ffffff" d="M 243.828125 204.457031 C 252.261719 202.605469 259.644531 195.839844 262.519531 187.738281 C 264.972656 180.808594 264.0625 172.066406 257.1875 168.007812 C 255.546875 167.042969 253.816406 166.457031 252.054688 166.191406 C 251.671875 166.125 251.292969 166.089844 250.910156 166.058594 C 250.484375 166.019531 250.058594 166 249.632812 166.007812 C 247.355469 166.007812 245.066406 166.46875 242.867188 167.277344 C 242.820312 167.292969 242.777344 167.304688 242.722656 167.320312 C 242.199219 167.511719 241.679688 167.730469 241.167969 167.960938 C 244.871094 171.871094 247.296875 176.863281 248.113281 182.210938 C 249.042969 188.34375 247.535156 194.832031 244.074219 199.972656 C 242.8125 201.847656 241.335938 203.507812 239.625 204.910156 C 241.035156 204.917969 242.453125 204.753906 243.828125 204.457031 Z M 162.746094 201.636719 C 162.589844 201.578125 162.421875 201.523438 162.265625 201.457031 C 164.042969 200.113281 165.589844 198.488281 166.925781 196.707031 C 173.28125 188.261719 174.789062 177.023438 171.089844 167.214844 C 173.007812 168.359375 174.777344 169.730469 176.292969 171.230469 C 182.382812 177.382812 186.59375 187.632812 181.964844 195.839844 C 178.113281 202.664062 169.695312 204.097656 162.746094 201.636719 " fill-opacity="1" fill-rule="nonzero"/><path fill="#ffddb9" d="M 302.570312 219.972656 C 309.929688 217.058594 315.996094 211.035156 318.859375 203.636719 C 321.664062 196.371094 320.976562 188.304688 316.671875 181.769531 C 312.707031 175.75 305.9375 171.515625 298.5625 172.160156 C 293.734375 172.59375 288.957031 174.808594 285.492188 178.273438 C 286.277344 186.015625 286.457031 193.792969 285.722656 201.53125 C 288.015625 199.636719 290.335938 197.78125 292.652344 195.90625 C 294.816406 194.152344 297.03125 191.992188 299.773438 191.183594 C 302.097656 190.5 304.890625 191.042969 306.4375 193.011719 C 306.824219 193.496094 306.636719 194.132812 306.101562 194.40625 C 305.503906 194.707031 304.773438 194.453125 304.355469 193.980469 C 303.011719 192.46875 300.660156 193.511719 299.308594 194.453125 C 297.171875 195.945312 295.25 197.792969 293.253906 199.472656 C 291.179688 201.226562 289.097656 202.984375 287.007812 204.726562 C 286.394531 205.230469 285.785156 205.746094 285.164062 206.261719 L 285.164062 206.269531 C 285.074219 206.871094 284.976562 207.480469 284.882812 208.082031 C 284.140625 212.542969 283.035156 216.933594 281.527344 221.179688 C 284.226562 221.769531 286.953125 222.15625 289.734375 222.222656 C 294.09375 222.328125 298.507812 221.578125 302.570312 219.972656 Z M 217.300781 199.84375 C 217.613281 196.398438 217.144531 192.980469 216.023438 189.707031 C 215.613281 188.503906 213.285156 188.757812 213.695312 190.191406 C 214.53125 193.140625 214.777344 196.324219 214.464844 199.375 C 214.308594 200.882812 213.984375 202.382812 213.546875 203.835938 C 213.089844 205.351562 212.375 206.8125 212.054688 208.363281 C 211.84375 209.347656 213.457031 210.019531 214.105469 209.320312 C 216.34375 206.902344 217.007812 203.023438 217.300781 199.84375 Z M 187.414062 225.007812 C 192.070312 228.414062 197.675781 230.730469 203.511719 230.699219 C 208.984375 230.664062 214.0625 228.574219 217.722656 224.46875 C 218.402344 223.710938 216.996094 222.976562 216.390625 223.5625 C 214.335938 225.550781 211.746094 226.699219 209 227.363281 C 204.246094 228.515625 199.300781 227.878906 194.855469 225.933594 C 192.527344 224.902344 190.324219 223.5 188.3125 221.941406 C 186.265625 220.351562 184.46875 218.472656 182.503906 216.808594 C 181.503906 215.96875 179.179688 216.628906 180.210938 218.121094 C 182.082031 220.84375 184.746094 223.070312 187.414062 225.007812 Z M 281.363281 209.191406 C 281.164062 210.257812 280.933594 211.320312 280.683594 212.378906 C 280.042969 215.09375 279.253906 217.769531 278.304688 220.390625 C 278.035156 221.152344 277.742188 221.898438 277.445312 222.644531 C 275.609375 227.214844 273.265625 231.582031 270.371094 235.601562 C 265.578125 242.261719 259.4375 247.835938 252.523438 252.230469 C 237.59375 261.726562 219.726562 265.261719 202.207031 264.222656 C 192.300781 263.632812 182.507812 261.714844 173.015625 258.875 C 164.75 256.40625 156.65625 253.300781 148.964844 249.378906 C 137.902344 243.730469 127.742188 236.285156 119.609375 226.960938 C 126.496094 217.488281 130.730469 206.140625 132.558594 194.621094 C 135.015625 179.152344 133.535156 163.484375 130.820312 148.140625 C 137.820312 147.902344 144.808594 147.277344 151.726562 146.246094 C 158.609375 145.222656 165.460938 143.765625 172.144531 141.757812 C 173.851562 142.492188 175.6875 142.933594 177.238281 143.113281 C 181.867188 143.640625 187.71875 142.867188 191.058594 139.25 C 192.316406 137.882812 193.128906 136.109375 192.847656 134.222656 C 192.808594 133.953125 192.75 133.695312 192.667969 133.441406 C 197.886719 130.675781 202.867188 127.449219 207.511719 123.703125 C 217.300781 115.820312 225.496094 105.851562 230.5625 94.445312 C 231.488281 96.257812 232.398438 98.085938 233.273438 99.929688 C 235.148438 103.890625 236.914062 107.894531 238.730469 111.886719 C 244.699219 125.089844 251.097656 138.535156 261.660156 148.753906 C 266.957031 153.878906 273.453125 158.058594 280.476562 160.378906 C 280.476562 160.390625 280.484375 160.410156 280.484375 160.425781 C 281.351562 166.089844 282.101562 171.839844 282.582031 177.605469 C 282.691406 178.921875 282.78125 180.226562 282.867188 181.539062 C 283.3125 189.195312 283.207031 196.859375 282.164062 204.417969 C 281.9375 206.015625 281.679688 207.609375 281.363281 209.191406 Z M 260.1875 167.253906 C 261.972656 164.753906 262.414062 160.859375 260.300781 158.4375 C 260.046875 158.152344 259.597656 158.039062 259.242188 158.144531 C 258.941406 158.226562 258.609375 158.53125 258.695312 158.875 C 259.039062 160.183594 259.355469 161.546875 259.253906 162.882812 C 259.171875 163.984375 258.839844 165.046875 258.253906 165.992188 C 257.53125 165.585938 256.769531 165.242188 255.988281 164.957031 C 254.800781 164.523438 253.597656 164.226562 252.390625 164.046875 C 252.207031 164.015625 252.039062 163.992188 251.867188 163.96875 C 252.335938 162.179688 252.253906 160.25 251.359375 158.597656 C 251.15625 158.234375 250.714844 158.078125 250.320312 158.140625 C 249.96875 158.1875 249.589844 158.480469 249.679688 158.875 C 250.023438 160.527344 250.136719 162.226562 249.671875 163.816406 C 247.652344 163.769531 245.632812 164.039062 243.660156 164.542969 C 243.648438 164.367188 243.625 164.1875 243.589844 164.007812 C 243.484375 163.53125 243.328125 163.070312 243.082031 162.648438 C 242.804688 162.175781 242.417969 161.789062 241.992188 161.433594 C 241.695312 161.1875 241.164062 161.203125 240.863281 161.429688 C 240.542969 161.660156 240.566406 161.996094 240.753906 162.292969 C 240.753906 162.292969 240.761719 162.304688 240.78125 162.339844 C 240.804688 162.382812 240.847656 162.441406 240.855469 162.464844 C 240.910156 162.546875 240.949219 162.628906 240.992188 162.710938 C 241.066406 162.875 241.132812 163.046875 241.207031 163.210938 C 241.273438 163.382812 241.328125 163.546875 241.394531 163.71875 C 241.394531 163.726562 241.402344 163.738281 241.402344 163.75 C 241.410156 163.769531 241.417969 163.777344 241.417969 163.785156 C 241.421875 163.808594 241.429688 163.828125 241.429688 163.84375 C 241.453125 163.933594 241.46875 164.023438 241.484375 164.113281 C 241.523438 164.300781 241.542969 164.484375 241.558594 164.679688 C 241.566406 164.769531 241.566406 164.859375 241.566406 164.949219 C 241.566406 164.949219 241.570312 164.957031 241.566406 164.972656 L 241.566406 164.976562 C 241.566406 165.007812 241.558594 165.070312 241.558594 165.082031 C 241.558594 165.121094 241.550781 165.164062 241.542969 165.203125 C 240.765625 165.46875 240.003906 165.785156 239.257812 166.125 C 238.652344 166.410156 238.058594 166.710938 237.464844 167.03125 C 235.035156 168.371094 232.789062 170.058594 230.855469 171.976562 C 229.957031 172.878906 229.117188 173.832031 228.332031 174.832031 C 223.046875 181.5625 220.398438 191.695312 225.167969 199.414062 C 227.457031 203.121094 230.929688 205.394531 234.808594 206.441406 C 234.914062 206.46875 235.011719 206.492188 235.117188 206.515625 C 235.667969 206.664062 236.226562 206.777344 236.804688 206.863281 L 236.808594 206.863281 C 237.71875 207.015625 238.652344 207.089844 239.585938 207.113281 C 242.3125 207.179688 245.082031 206.722656 247.671875 205.8125 C 256.710938 202.636719 264.242188 194.574219 266.152344 185.089844 C 266.972656 181.015625 266.699219 176.621094 264.832031 172.863281 C 263.742188 170.65625 262.136719 168.730469 260.1875 167.253906 Z M 242.453125 129.515625 C 238.378906 126.484375 232.511719 125.925781 227.675781 127.039062 C 223.839844 127.925781 219.320312 130.355469 219.121094 134.746094 C 219.113281 134.796875 219.113281 134.847656 219.113281 134.910156 L 219.113281 134.933594 C 219.113281 134.976562 219.113281 135.019531 219.121094 135.058594 C 219.121094 135.0625 219.121094 135.0625 219.121094 135.070312 C 219.359375 140.183594 225.703125 142.621094 229.972656 143.113281 C 234.601562 143.640625 240.453125 142.867188 243.789062 139.25 C 245.054688 137.882812 245.863281 136.109375 245.582031 134.222656 C 245.292969 132.28125 243.992188 130.664062 242.453125 129.515625 Z M 175.6875 167.535156 C 173.105469 165.515625 170.027344 163.859375 166.773438 162.832031 C 166.789062 162.679688 166.804688 162.539062 166.832031 162.394531 C 166.871094 162.195312 166.925781 162.003906 166.992188 161.808594 C 167.015625 161.742188 167.042969 161.667969 167.058594 161.601562 C 167.058594 161.601562 167.050781 161.59375 167.066406 161.578125 C 167.066406 161.570312 167.074219 161.570312 167.074219 161.558594 L 167.074219 161.554688 C 167.097656 161.511719 167.109375 161.464844 167.132812 161.421875 C 167.292969 161.0625 167.429688 160.71875 167.648438 160.390625 C 167.871094 160.0625 167.574219 159.660156 167.292969 159.507812 C 166.917969 159.308594 166.5 159.355469 166.171875 159.617188 C 165.804688 159.90625 165.4375 160.273438 165.207031 160.6875 C 164.976562 161.089844 164.820312 161.546875 164.726562 162.003906 C 164.714844 162.089844 164.699219 162.175781 164.691406 162.261719 C 162.660156 161.792969 160.59375 161.582031 158.554688 161.695312 C 158.207031 160.203125 158.335938 158.652344 158.644531 157.101562 C 158.726562 156.691406 158.339844 156.386719 158.003906 156.289062 C 157.636719 156.175781 157.167969 156.273438 156.96875 156.625 C 156.058594 158.226562 155.980469 160.160156 156.4375 161.933594 C 154.425781 162.261719 152.484375 162.933594 150.652344 164.003906 C 150.464844 164.113281 150.285156 164.226562 150.105469 164.34375 C 149.511719 163.417969 149.167969 162.363281 149.078125 161.234375 C 148.972656 159.824219 149.292969 158.496094 149.621094 157.109375 C 149.808594 156.316406 148.488281 155.984375 148.03125 156.464844 C 145.726562 158.949219 146.472656 163.105469 148.414062 165.589844 L 148.414062 165.597656 C 146.039062 167.613281 144.320312 170.289062 143.441406 173.328125 C 142.238281 177.464844 142.6875 181.933594 144.066406 185.96875 C 146.410156 192.8125 151.683594 198.742188 158.160156 202.113281 C 158.75 202.410156 159.347656 202.695312 159.953125 202.957031 C 161.550781 203.648438 163.214844 204.1875 164.910156 204.554688 C 169.066406 205.4375 173.523438 205.222656 177.425781 203.441406 C 181.128906 201.746094 184 198.636719 185.472656 194.847656 C 188.828125 186.199219 184.746094 176.347656 178.554688 170.09375 C 177.640625 169.191406 176.695312 168.328125 175.6875 167.535156 Z M 84.019531 209.65625 C 83.070312 209.039062 82.167969 208.351562 81.324219 207.605469 C 74.382812 201.433594 72.410156 191.402344 75.941406 182.890625 C 78.710938 176.214844 85.035156 171.378906 92.050781 169.960938 C 92.214844 171.585938 92.3125 173.214844 92.359375 174.847656 C 92.574219 182.871094 91.347656 190.925781 88.832031 198.546875 C 87.558594 202.40625 85.9375 206.113281 84.019531 209.65625 " fill-opacity="1" fill-rule="nonzero"/><g clip-path="url(#id2)"><path fill="#323130" d="M 366.300781 265.992188 C 362.046875 276.382812 354.125 285.425781 343.488281 289.5 C 335.703125 292.472656 326.457031 292.9375 318.507812 290.011719 C 318.273438 288.027344 317.871094 286.042969 317.273438 284.082031 C 317.015625 283.238281 315.269531 283.230469 315.527344 284.175781 C 315.984375 285.816406 316.289062 287.492188 316.457031 289.167969 C 316.550781 290.085938 316.605469 291.003906 316.609375 291.929688 C 316.609375 292.191406 316.617188 292.445312 316.605469 292.707031 C 316.558594 298.6875 314.863281 304.664062 312.027344 309.9375 C 308.246094 316.957031 302.339844 322.546875 295.117188 325.9375 C 287.65625 329.445312 279.214844 330.632812 271.050781 329.609375 C 263.023438 328.59375 255.449219 325.28125 248.933594 320.554688 C 245.714844 318.21875 242.757812 315.488281 240.078125 312.558594 C 237.671875 309.921875 235.609375 307.050781 233.511719 304.179688 C 233.152344 303.6875 232.796875 303.195312 232.429688 302.703125 C 232.230469 302.425781 231.847656 302.289062 231.484375 302.289062 C 230.847656 302.289062 230.226562 302.6875 230.53125 303.386719 C 230.59375 303.527344 230.652344 303.671875 230.71875 303.804688 C 226.988281 310.90625 221.554688 317.082031 215.261719 322.03125 C 207.910156 327.800781 199.347656 331.929688 190.347656 334.390625 C 180.726562 337.023438 170.722656 337.476562 160.847656 336.261719 C 149.832031 334.902344 139.164062 331.472656 129.117188 326.804688 C 124.65625 324.726562 120.3125 322.386719 116.058594 319.875 C 118.59375 318.464844 121.046875 316.90625 123.394531 315.203125 C 124.496094 314.398438 122.691406 312.996094 121.765625 313.570312 C 120.019531 314.636719 118.242188 315.664062 116.4375 316.628906 C 115.40625 317.179688 114.367188 317.707031 113.316406 318.21875 C 112.285156 318.726562 111.25 319.210938 110.195312 319.671875 C 96.960938 325.535156 82.4375 328.347656 67.933594 327.109375 C 51.894531 325.738281 36.554688 319.386719 24.941406 308.128906 C 14.070312 297.589844 6.503906 283.382812 4.285156 268.378906 C 3.175781 260.867188 3.421875 253.152344 5.207031 245.769531 C 7.175781 237.621094 10.789062 230.011719 15.363281 223.015625 C 23.28125 210.910156 33.765625 200.746094 44.519531 191.109375 C 45.40625 193.886719 46.390625 196.636719 47.460938 199.34375 C 48.035156 200.808594 48.640625 202.246094 49.28125 203.679688 C 49.933594 205.140625 50.75 206.515625 51.425781 207.96875 C 52.011719 209.238281 54.722656 208.980469 54.035156 207.5 C 53.425781 206.183594 53 204.769531 52.445312 203.417969 C 51.886719 202.039062 51.339844 200.652344 50.804688 199.265625 C 49.46875 195.800781 48.257812 192.296875 47.175781 188.746094 C 46.945312 187.976562 46.710938 187.199219 46.488281 186.425781 C 44.386719 179.136719 42.832031 171.6875 41.90625 164.140625 C 40.414062 152.042969 40.445312 139.738281 42.128906 127.660156 C 43.757812 115.929688 47.011719 104.382812 51.871094 93.578125 C 56.148438 84.046875 61.722656 75.101562 68.316406 66.992188 C 74.90625 58.886719 82.511719 51.632812 90.960938 45.480469 C 99.359375 39.363281 108.5625 34.355469 118.332031 30.785156 C 128.125 27.195312 138.386719 25.121094 148.808594 24.667969 C 159.140625 24.21875 169.574219 25.332031 179.582031 27.929688 C 189.652344 30.539062 199.273438 34.617188 208.125 40.078125 C 213.992188 43.695312 219.515625 47.910156 224.488281 52.707031 C 224.816406 53.027344 225.144531 53.347656 225.472656 53.679688 C 226.207031 54.394531 226.921875 55.132812 227.613281 55.886719 C 229.003906 57.351562 230.324219 58.863281 231.59375 60.421875 C 232.324219 61.316406 234.300781 60.621094 233.421875 59.503906 C 232.128906 57.878906 230.796875 56.304688 229.398438 54.757812 C 230.300781 54.222656 231.222656 53.722656 232.167969 53.253906 C 241.65625 48.554688 252.875 47.820312 263.078125 50.402344 C 273.863281 53.125 283.238281 59.394531 290.125 68.097656 C 297.144531 76.980469 301.503906 87.71875 303.503906 98.808594 C 304.542969 104.578125 304.847656 110.441406 304.652344 116.289062 C 304.421875 123.285156 303.675781 130.34375 304.625 137.324219 C 305.457031 143.449219 307.738281 149.113281 311.191406 154.222656 C 314.523438 159.144531 318.671875 163.464844 322.941406 167.570312 C 332.328125 176.585938 341.980469 185.277344 350.101562 195.511719 C 358.222656 205.738281 364.882812 217.25 368.15625 229.96875 C 371.226562 241.875 370.988281 254.535156 366.300781 265.992188 Z M 369.628906 223.753906 C 365.160156 210.816406 357.46875 199.355469 348.550781 189.089844 C 344.054688 183.917969 339.242188 179.046875 334.285156 174.316406 C 329.703125 169.933594 324.925781 165.734375 320.566406 161.109375 C 316.421875 156.707031 312.59375 151.804688 310.265625 146.171875 C 307.578125 139.652344 307.339844 132.652344 307.601562 125.703125 C 307.847656 119.0625 308.339844 112.46875 307.75 105.839844 C 307.226562 99.9375 306.078125 94.082031 304.265625 88.441406 C 300.691406 77.296875 294.457031 66.84375 285.597656 59.101562 C 270.035156 45.503906 245.15625 41.265625 227.292969 52.46875 C 226.863281 52.015625 226.421875 51.558594 225.972656 51.121094 C 219.320312 44.421875 211.65625 38.804688 203.304688 34.378906 C 193.75 29.300781 183.433594 25.742188 172.8125 23.695312 C 162.320312 21.675781 151.511719 21.214844 140.890625 22.398438 C 130.28125 23.59375 119.875 26.472656 110.125 30.777344 C 100.367188 35.074219 91.222656 40.742188 82.988281 47.507812 C 74.726562 54.296875 67.339844 62.160156 61.082031 70.835938 C 54.75 79.601562 49.5625 89.207031 45.757812 99.332031 C 41.382812 110.945312 38.789062 123.210938 37.835938 135.574219 C 36.890625 147.941406 37.644531 160.390625 39.871094 172.585938 C 40.871094 178.042969 42.175781 183.441406 43.78125 188.746094 C 43.773438 188.753906 43.773438 188.753906 43.765625 188.757812 C 30.746094 200 17.679688 212.085938 9.234375 227.28125 C 5.167969 234.601562 2.195312 242.570312 1.070312 250.886719 C 0.0234375 258.664062 0.503906 266.550781 2.273438 274.1875 C 5.816406 289.527344 14.679688 303.679688 26.828125 313.675781 C 39.988281 324.511719 56.835938 330.027344 73.800781 330.222656 C 87.214844 330.382812 100.960938 327.496094 113.054688 321.457031 C 113.964844 322.015625 114.875 322.566406 115.789062 323.105469 C 120.886719 326.117188 126.1875 328.800781 131.625 331.128906 C 142.226562 335.671875 153.53125 338.792969 165.0625 339.648438 C 175.320312 340.410156 185.609375 339.226562 195.371094 335.980469 C 204.546875 332.929688 213.238281 328.109375 220.4375 321.625 C 225.183594 317.335938 229.199219 312.308594 232.222656 306.714844 C 233.980469 309.734375 236.234375 312.535156 238.550781 315.085938 C 241.796875 318.648438 245.523438 321.78125 249.566406 324.417969 C 264.289062 334.003906 283.84375 335.667969 299.359375 326.902344 C 311.566406 320.003906 319.238281 306.511719 318.722656 292.75 C 329.210938 296.4375 341.28125 294.859375 350.84375 289.363281 C 361.113281 283.46875 368.171875 272.90625 371.40625 261.679688 C 374.992188 249.214844 373.832031 235.921875 369.628906 223.753906 Z M 318.859375 203.636719 C 315.996094 211.035156 309.929688 217.058594 302.570312 219.972656 C 298.507812 221.578125 294.09375 222.328125 289.734375 222.222656 C 286.953125 222.15625 284.226562 221.769531 281.527344 221.179688 C 283.035156 216.933594 284.140625 212.542969 284.882812 208.082031 C 284.976562 207.480469 285.074219 206.871094 285.164062 206.269531 L 285.164062 206.261719 C 285.785156 205.746094 286.394531 205.230469 287.007812 204.726562 C 289.097656 202.984375 291.179688 201.226562 293.253906 199.472656 C 295.25 197.792969 297.171875 195.945312 299.308594 194.453125 C 300.660156 193.511719 303.011719 192.46875 304.355469 193.980469 C 304.773438 194.453125 305.503906 194.707031 306.101562 194.40625 C 306.636719 194.132812 306.824219 193.496094 306.4375 193.011719 C 304.890625 191.042969 302.097656 190.5 299.773438 191.183594 C 297.03125 191.992188 294.816406 194.152344 292.652344 195.90625 C 290.335938 197.78125 288.015625 199.636719 285.722656 201.53125 C 286.457031 193.792969 286.277344 186.015625 285.492188 178.273438 C 288.957031 174.808594 293.734375 172.59375 298.5625 172.160156 C 305.9375 171.515625 312.707031 175.75 316.671875 181.769531 C 320.976562 188.304688 321.664062 196.371094 318.859375 203.636719 Z M 280.683594 212.378906 C 280.042969 215.09375 279.253906 217.769531 278.304688 220.390625 C 278.035156 221.152344 277.742188 221.898438 277.445312 222.644531 C 275.609375 227.214844 273.265625 231.582031 270.371094 235.601562 C 265.578125 242.261719 259.4375 247.835938 252.523438 252.230469 C 237.59375 261.726562 219.726562 265.261719 202.207031 264.222656 C 192.300781 263.632812 182.507812 261.714844 173.015625 258.875 C 164.75 256.40625 156.65625 253.300781 148.964844 249.378906 C 137.902344 243.730469 127.742188 236.285156 119.609375 226.960938 C 126.496094 217.488281 130.730469 206.140625 132.558594 194.621094 C 135.015625 179.152344 133.535156 163.484375 130.820312 148.140625 C 137.820312 147.902344 144.808594 147.277344 151.726562 146.246094 C 158.609375 145.222656 165.460938 143.765625 172.144531 141.757812 C 173.851562 142.492188 175.6875 142.933594 177.238281 143.113281 C 181.867188 143.640625 187.71875 142.867188 191.058594 139.25 C 192.316406 137.882812 193.128906 136.109375 192.847656 134.222656 C 192.808594 133.953125 192.75 133.695312 192.667969 133.441406 C 197.886719 130.675781 202.867188 127.449219 207.511719 123.703125 C 217.300781 115.820312 225.496094 105.851562 230.5625 94.445312 C 231.488281 96.257812 232.398438 98.085938 233.273438 99.929688 C 235.148438 103.890625 236.914062 107.894531 238.730469 111.886719 C 244.699219 125.089844 251.097656 138.535156 261.660156 148.753906 C 266.957031 153.878906 273.453125 158.058594 280.476562 160.378906 C 280.476562 160.390625 280.484375 160.410156 280.484375 160.425781 C 281.351562 166.089844 282.101562 171.839844 282.582031 177.605469 C 282.691406 178.921875 282.78125 180.226562 282.867188 181.539062 C 283.3125 189.195312 283.207031 196.859375 282.164062 204.417969 C 281.9375 206.015625 281.679688 207.609375 281.363281 209.191406 C 281.164062 210.257812 280.933594 211.320312 280.683594 212.378906 Z M 190.125 134.746094 C 190.136719 134.953125 190.125 135.164062 190.085938 135.371094 C 189.839844 136.804688 188.816406 137.929688 187.667969 138.75 C 184.40625 141.070312 179.769531 141.449219 175.949219 140.636719 C 175.902344 140.628906 175.859375 140.613281 175.808594 140.609375 C 180.710938 138.964844 185.503906 137.03125 190.125 134.746094 Z M 295.21875 170.109375 C 291.503906 170.90625 287.992188 172.605469 285.140625 175.027344 C 284.566406 170.355469 283.800781 165.710938 282.902344 161.101562 C 288.425781 162.554688 294.21875 162.84375 299.972656 161.539062 C 301.40625 161.21875 300.351562 159.597656 299.1875 159.808594 C 293.570312 160.835938 287.785156 160.234375 282.375 158.472656 C 281.589844 158.226562 280.8125 157.953125 280.042969 157.644531 C 279.140625 157.292969 278.253906 156.90625 277.378906 156.496094 C 264.847656 150.566406 256.277344 139.308594 249.777344 127.417969 C 246.253906 120.972656 243.289062 114.25 240.253906 107.574219 C 238.671875 104.074219 237.042969 100.597656 235.324219 97.175781 C 234.273438 95.09375 233.191406 92.992188 231.996094 90.964844 C 233.496094 87.003906 234.625 82.882812 235.3125 78.632812 C 235.511719 77.378906 233.207031 76.84375 232.957031 78.09375 C 232.289062 81.472656 231.339844 84.785156 230.128906 88 C 229.742188 89.054688 229.324219 90.089844 228.875 91.121094 C 226.757812 96.027344 224.0625 100.683594 220.90625 105.007812 C 213.039062 115.789062 202.648438 124.359375 190.972656 130.632812 C 190.234375 131.03125 189.488281 131.417969 188.742188 131.796875 C 185.03125 133.671875 181.203125 135.324219 177.292969 136.742188 C 175.328125 137.453125 173.351562 138.117188 171.363281 138.71875 C 170.441406 139.003906 169.511719 139.28125 168.578125 139.535156 C 161.355469 141.5625 153.957031 142.957031 146.511719 143.867188 C 141.121094 144.53125 135.703125 144.933594 130.28125 145.1875 C 129.429688 145.234375 128.578125 145.269531 127.730469 145.300781 C 123.363281 145.476562 118.996094 145.578125 114.636719 145.648438 C 112.75 145.6875 113.070312 147.929688 114.78125 148.015625 C 119.234375 148.242188 123.707031 148.304688 128.1875 148.21875 C 129.324219 155.75 130.191406 163.328125 130.507812 170.953125 C 131.140625 186.261719 129.253906 201.875 122.386719 215.734375 C 120.929688 218.6875 119.242188 221.539062 117.347656 224.246094 C 116.855469 224.953125 116.347656 225.65625 115.816406 226.34375 C 114.332031 228.304688 112.734375 230.167969 111.023438 231.929688 C 108.769531 234.257812 106.285156 236.375 103.628906 238.25 C 100.851562 240.195312 97.949219 241.804688 94.960938 243.402344 C 94.371094 243.707031 94.148438 244.335938 94.558594 244.910156 C 95 245.515625 95.785156 245.621094 96.449219 245.410156 C 103.664062 243.128906 110.03125 237.980469 115.089844 232.488281 C 116.101562 231.394531 117.070312 230.261719 117.988281 229.09375 C 127.085938 240.03125 139.464844 248.101562 152.316406 253.996094 C 170.027344 262.128906 189.652344 267.3125 209.226562 267.207031 C 227.0625 267.109375 244.984375 262.132812 259.359375 251.339844 C 266.105469 246.273438 271.929688 239.976562 276.207031 232.691406 C 277.894531 229.820312 279.339844 226.828125 280.558594 223.753906 C 289.308594 226.347656 299.390625 225.292969 307.316406 221.113281 C 314.925781 217.105469 320.910156 209.847656 322.988281 201.464844 C 325.03125 193.234375 322.902344 184.46875 317.339844 178.0625 C 311.847656 171.730469 303.546875 168.328125 295.21875 170.109375 Z M 262.519531 187.738281 C 259.644531 195.839844 252.261719 202.605469 243.828125 204.457031 C 242.453125 204.753906 241.035156 204.917969 239.625 204.910156 C 241.335938 203.507812 242.8125 201.847656 244.074219 199.972656 C 247.535156 194.832031 249.042969 188.34375 248.113281 182.210938 C 247.296875 176.863281 244.871094 171.871094 241.167969 167.960938 C 241.679688 167.730469 242.199219 167.511719 242.722656 167.320312 C 242.777344 167.304688 242.820312 167.292969 242.867188 167.277344 C 245.066406 166.46875 247.355469 166.007812 249.632812 166.007812 C 250.058594 166 250.484375 166.019531 250.910156 166.058594 C 251.292969 166.089844 251.671875 166.125 252.054688 166.191406 C 253.816406 166.457031 255.546875 167.042969 257.1875 168.007812 C 264.0625 172.066406 264.972656 180.808594 262.519531 187.738281 Z M 236.460938 204.597656 C 236.175781 204.542969 235.902344 204.476562 235.625 204.410156 C 234.796875 204.195312 233.988281 203.910156 233.207031 203.542969 C 229.972656 202.039062 227.578125 199.273438 226.367188 195.9375 C 223.527344 188.074219 227.414062 179.203125 232.980469 173.582031 C 234.75 171.824219 236.886719 170.214844 239.210938 168.941406 C 240.953125 170.839844 242.386719 173.042969 243.4375 175.382812 C 245.804688 180.667969 246.269531 186.679688 244.589844 192.222656 C 243.125 197.039062 240.164062 201.234375 236.460938 204.597656 Z M 260.1875 167.253906 C 261.972656 164.753906 262.414062 160.859375 260.300781 158.4375 C 260.046875 158.152344 259.597656 158.039062 259.242188 158.144531 C 258.941406 158.226562 258.609375 158.53125 258.695312 158.875 C 259.039062 160.183594 259.355469 161.546875 259.253906 162.882812 C 259.171875 163.984375 258.839844 165.046875 258.253906 165.992188 C 257.53125 165.585938 256.769531 165.242188 255.988281 164.957031 C 254.800781 164.523438 253.597656 164.226562 252.390625 164.046875 C 252.207031 164.015625 252.039062 163.992188 251.867188 163.96875 C 252.335938 162.179688 252.253906 160.25 251.359375 158.597656 C 251.15625 158.234375 250.714844 158.078125 250.320312 158.140625 C 249.96875 158.1875 249.589844 158.480469 249.679688 158.875 C 250.023438 160.527344 250.136719 162.226562 249.671875 163.816406 C 247.652344 163.769531 245.632812 164.039062 243.660156 164.542969 C 243.648438 164.367188 243.625 164.1875 243.589844 164.007812 C 243.484375 163.53125 243.328125 163.070312 243.082031 162.648438 C 242.804688 162.175781 242.417969 161.789062 241.992188 161.433594 C 241.695312 161.1875 241.164062 161.203125 240.863281 161.429688 C 240.542969 161.660156 240.566406 161.996094 240.753906 162.292969 C 240.753906 162.292969 240.761719 162.304688 240.78125 162.339844 C 240.804688 162.382812 240.847656 162.441406 240.855469 162.464844 C 240.910156 162.546875 240.949219 162.628906 240.992188 162.710938 C 241.066406 162.875 241.132812 163.046875 241.207031 163.210938 C 241.273438 163.382812 241.328125 163.546875 241.394531 163.71875 C 241.394531 163.726562 241.402344 163.738281 241.402344 163.75 C 241.410156 163.769531 241.417969 163.777344 241.417969 163.785156 C 241.421875 163.808594 241.429688 163.828125 241.429688 163.84375 C 241.453125 163.933594 241.46875 164.023438 241.484375 164.113281 C 241.523438 164.300781 241.542969 164.484375 241.558594 164.679688 C 241.566406 164.769531 241.566406 164.859375 241.566406 164.949219 C 241.566406 164.949219 241.570312 164.957031 241.566406 164.972656 L 241.566406 164.976562 C 241.566406 165.007812 241.558594 165.070312 241.558594 165.082031 C 241.558594 165.121094 241.550781 165.164062 241.542969 165.203125 C 240.765625 165.46875 240.003906 165.785156 239.257812 166.125 C 238.652344 166.410156 238.058594 166.710938 237.464844 167.03125 C 235.035156 168.371094 232.789062 170.058594 230.855469 171.976562 C 229.957031 172.878906 229.117188 173.832031 228.332031 174.832031 C 223.046875 181.5625 220.398438 191.695312 225.167969 199.414062 C 227.457031 203.121094 230.929688 205.394531 234.808594 206.441406 C 234.914062 206.46875 235.011719 206.492188 235.117188 206.515625 C 235.667969 206.664062 236.226562 206.777344 236.804688 206.863281 L 236.808594 206.863281 C 237.71875 207.015625 238.652344 207.089844 239.585938 207.113281 C 242.3125 207.179688 245.082031 206.722656 247.671875 205.8125 C 256.710938 202.636719 264.242188 194.574219 266.152344 185.089844 C 266.972656 181.015625 266.699219 176.621094 264.832031 172.863281 C 263.742188 170.65625 262.136719 168.730469 260.1875 167.253906 Z M 221.882812 134.890625 C 221.964844 130.984375 227.300781 129.28125 230.394531 128.910156 C 234.042969 128.476562 238.707031 129.046875 241.445312 131.765625 C 242.402344 132.714844 243.050781 134.003906 242.8125 135.371094 C 242.566406 136.804688 241.550781 137.929688 240.402344 138.75 C 237.140625 141.070312 232.496094 141.449219 228.683594 140.636719 C 225.808594 140.027344 221.949219 138.316406 221.882812 134.890625 Z M 243.789062 139.25 C 245.054688 137.882812 245.863281 136.109375 245.582031 134.222656 C 245.292969 132.28125 243.992188 130.664062 242.453125 129.515625 C 238.378906 126.484375 232.511719 125.925781 227.675781 127.039062 C 223.839844 127.925781 219.320312 130.355469 219.121094 134.746094 C 219.113281 134.796875 219.113281 134.847656 219.113281 134.910156 L 219.113281 134.933594 C 219.113281 134.976562 219.113281 135.019531 219.121094 135.058594 C 219.121094 135.0625 219.121094 135.0625 219.121094 135.070312 C 219.359375 140.183594 225.703125 142.621094 229.972656 143.113281 C 234.601562 143.640625 240.453125 142.867188 243.789062 139.25 Z M 217.722656 224.46875 C 214.0625 228.574219 208.984375 230.664062 203.511719 230.699219 C 197.675781 230.730469 192.070312 228.414062 187.414062 225.007812 C 184.746094 223.070312 182.082031 220.84375 180.210938 218.121094 C 179.179688 216.628906 181.503906 215.96875 182.503906 216.808594 C 184.46875 218.472656 186.265625 220.351562 188.3125 221.941406 C 190.324219 223.5 192.527344 224.902344 194.855469 225.933594 C 199.300781 227.878906 204.246094 228.515625 209 227.363281 C 211.746094 226.699219 214.335938 225.550781 216.390625 223.5625 C 216.996094 222.976562 218.402344 223.710938 217.722656 224.46875 Z M 212.054688 208.363281 C 212.375 206.8125 213.089844 205.351562 213.546875 203.835938 C 213.984375 202.382812 214.308594 200.882812 214.464844 199.375 C 214.777344 196.324219 214.53125 193.140625 213.695312 190.191406 C 213.285156 188.757812 215.613281 188.503906 216.023438 189.707031 C 217.144531 192.980469 217.613281 196.398438 217.300781 199.84375 C 217.007812 203.023438 216.34375 206.902344 214.105469 209.320312 C 213.457031 210.019531 211.84375 209.347656 212.054688 208.363281 Z M 162.746094 201.636719 C 162.589844 201.578125 162.421875 201.523438 162.265625 201.457031 C 164.042969 200.113281 165.589844 198.488281 166.925781 196.707031 C 173.28125 188.261719 174.789062 177.023438 171.089844 167.214844 C 173.007812 168.359375 174.777344 169.730469 176.292969 171.230469 C 182.382812 177.382812 186.59375 187.632812 181.964844 195.839844 C 178.113281 202.664062 169.695312 204.097656 162.746094 201.636719 Z M 159.453125 200.1875 C 152.855469 196.71875 147.609375 190.328125 146.019531 183.046875 C 145.226562 179.457031 145.292969 175.542969 146.8125 172.140625 C 148.292969 168.851562 150.953125 166.277344 154.316406 164.964844 C 155.355469 164.5625 156.40625 164.277344 157.472656 164.113281 C 157.980469 164.03125 158.496094 163.96875 159.015625 163.941406 C 160.980469 163.820312 162.976562 164.058594 164.910156 164.574219 C 165.558594 164.746094 166.199219 164.949219 166.828125 165.1875 C 167.074219 165.269531 167.3125 165.359375 167.558594 165.457031 C 167.558594 165.46875 167.566406 165.492188 167.574219 165.507812 C 170.441406 171.925781 170.933594 179.242188 168.871094 185.976562 C 167.953125 188.953125 166.566406 191.75 164.75 194.285156 C 163.199219 196.457031 161.363281 198.347656 159.453125 200.1875 Z M 185.472656 194.847656 C 188.828125 186.199219 184.746094 176.347656 178.554688 170.09375 C 177.640625 169.191406 176.695312 168.328125 175.6875 167.535156 C 173.105469 165.515625 170.027344 163.859375 166.773438 162.832031 C 166.789062 162.679688 166.804688 162.539062 166.832031 162.394531 C 166.871094 162.195312 166.925781 162.003906 166.992188 161.808594 C 167.015625 161.742188 167.042969 161.667969 167.058594 161.601562 C 167.058594 161.601562 167.050781 161.59375 167.066406 161.578125 C 167.066406 161.570312 167.074219 161.570312 167.074219 161.558594 L 167.074219 161.554688 C 167.097656 161.511719 167.109375 161.464844 167.132812 161.421875 C 167.292969 161.0625 167.429688 160.71875 167.648438 160.390625 C 167.871094 160.0625 167.574219 159.660156 167.292969 159.507812 C 166.917969 159.308594 166.5 159.355469 166.171875 159.617188 C 165.804688 159.90625 165.4375 160.273438 165.207031 160.6875 C 164.976562 161.089844 164.820312 161.546875 164.726562 162.003906 C 164.714844 162.089844 164.699219 162.175781 164.691406 162.261719 C 162.660156 161.792969 160.59375 161.582031 158.554688 161.695312 C 158.207031 160.203125 158.335938 158.652344 158.644531 157.101562 C 158.726562 156.691406 158.339844 156.386719 158.003906 156.289062 C 157.636719 156.175781 157.167969 156.273438 156.96875 156.625 C 156.058594 158.226562 155.980469 160.160156 156.4375 161.933594 C 154.425781 162.261719 152.484375 162.933594 150.652344 164.003906 C 150.464844 164.113281 150.285156 164.226562 150.105469 164.34375 C 149.511719 163.417969 149.167969 162.363281 149.078125 161.234375 C 148.972656 159.824219 149.292969 158.496094 149.621094 157.109375 C 149.808594 156.316406 148.488281 155.984375 148.03125 156.464844 C 145.726562 158.949219 146.472656 163.105469 148.414062 165.589844 L 148.414062 165.597656 C 146.039062 167.613281 144.320312 170.289062 143.441406 173.328125 C 142.238281 177.464844 142.6875 181.933594 144.066406 185.96875 C 146.410156 192.8125 151.683594 198.742188 158.160156 202.113281 C 158.75 202.410156 159.347656 202.695312 159.953125 202.957031 C 161.550781 203.648438 163.214844 204.1875 164.910156 204.554688 C 169.066406 205.4375 173.523438 205.222656 177.425781 203.441406 C 181.128906 201.746094 184 198.636719 185.472656 194.847656 Z M 88.832031 198.546875 C 87.558594 202.40625 85.9375 206.113281 84.019531 209.65625 C 83.070312 209.039062 82.167969 208.351562 81.324219 207.605469 C 74.382812 201.433594 72.410156 191.402344 75.941406 182.890625 C 78.710938 176.214844 85.035156 171.378906 92.050781 169.960938 C 92.214844 171.585938 92.3125 173.214844 92.359375 174.847656 C 92.574219 182.871094 91.347656 190.925781 88.832031 198.546875 Z M 94.96875 169.578125 C 94.878906 168.820312 94.769531 168.050781 94.648438 167.28125 C 94.320312 165.136719 93.878906 162.992188 93.34375 160.875 C 92.976562 159.445312 90.191406 159.644531 90.597656 161.328125 C 91.089844 163.367188 91.476562 165.433594 91.75 167.507812 C 87.832031 168.042969 84.058594 169.53125 80.816406 171.835938 C 72.457031 177.789062 68.996094 188.757812 71.972656 198.519531 C 73.390625 203.152344 76.308594 207.292969 80.113281 210.277344 C 80.914062 210.894531 81.765625 211.496094 82.65625 212.054688 C 81.09375 214.695312 79.367188 217.234375 77.496094 219.683594 C 76.363281 221.164062 79.25 222.589844 80.316406 221.324219 C 82.324219 218.925781 84.117188 216.375 85.699219 213.699219 C 86.183594 212.898438 86.640625 212.101562 87.070312 211.28125 C 87.429688 210.617188 87.78125 209.953125 88.117188 209.273438 C 94.230469 197.046875 96.601562 183.113281 94.96875 169.578125 " fill-opacity="1" fill-rule="nonzero"/></g><g clip-path="url(#id3)"><path fill="#ab0a00" d="M 255.199219 202.535156 C 251.515625 203.894531 247.691406 204.582031 243.824219 204.582031 C 237.417969 204.582031 231.390625 202.6875 226.40625 199.101562 C 218.945312 193.726562 215.214844 186.027344 215.320312 176.214844 L 215.351562 173.117188 L 215.71875 170.820312 C 218.457031 168.132812 231.015625 157.109375 252.554688 157.109375 C 259.296875 157.109375 266.324219 158.234375 273.460938 160.449219 C 273.582031 161.136719 273.726562 162.046875 273.863281 163.140625 L 274.230469 166.078125 L 274.3125 168.972656 C 274.652344 180.9375 271.609375 196.472656 255.199219 202.535156 Z M 186.78125 199.101562 C 181.796875 202.6875 175.777344 204.582031 169.367188 204.582031 C 165.5 204.582031 161.671875 203.894531 157.992188 202.535156 C 141.582031 196.472656 138.539062 180.9375 138.875 168.972656 L 138.957031 166.078125 L 139.324219 163.140625 C 139.460938 162.050781 139.605469 161.140625 139.730469 160.449219 C 146.867188 158.234375 153.890625 157.109375 160.632812 157.109375 C 182.191406 157.109375 194.722656 168.121094 197.46875 170.820312 L 197.835938 173.160156 L 197.867188 176.214844 C 197.976562 186.027344 194.246094 193.730469 186.78125 199.101562 Z M 281.851562 162.59375 L 278.242188 162.59375 C 277.886719 159.769531 277.472656 158 277.449219 157.917969 L 277.238281 157.058594 L 276.394531 156.777344 C 268.277344 154.085938 260.257812 152.722656 252.554688 152.722656 C 226.617188 152.722656 212.492188 167.792969 211.902344 168.433594 L 211.578125 168.789062 L 211.566406 168.851562 L 201.621094 168.851562 L 201.609375 168.789062 L 201.285156 168.433594 C 200.699219 167.792969 186.570312 152.722656 160.632812 152.722656 C 152.929688 152.722656 144.910156 154.085938 136.792969 156.777344 L 135.949219 157.058594 L 135.738281 157.917969 C 135.71875 158 135.304688 159.769531 134.949219 162.59375 L 131.335938 162.59375 L 131.335938 168.851562 L 134.464844 168.851562 C 134.128906 180.882812 137.011719 199.464844 156.457031 206.648438 C 160.628906 208.191406 164.972656 208.972656 169.367188 208.972656 C 176.710938 208.972656 183.625 206.789062 189.367188 202.65625 C 195.617188 198.160156 202.429688 190.046875 202.28125 176.167969 L 210.910156 176.167969 C 210.761719 190.046875 217.574219 198.160156 223.820312 202.65625 C 229.5625 206.789062 236.480469 208.972656 243.824219 208.972656 C 248.214844 208.972656 252.558594 208.191406 256.734375 206.648438 C 276.175781 199.464844 279.0625 180.882812 278.722656 168.851562 L 281.851562 168.851562 L 281.851562 162.59375 " fill-opacity="1" fill-rule="nonzero"/></g></svg>