<svg xmlns="http://www.w3.org/2000/svg" xmlns:xlink="http://www.w3.org/1999/xlink" width="500" zoomAndPan="magnify" viewBox="0 0 375 374.999991" height="500" preserveAspectRatio="xMidYMid meet" version="1.0"><defs><clipPath id="id1"><path d="M 7.957031 7.957031 L 367.207031 7.957031 L 367.207031 367.207031 L 7.957031 367.207031 Z M 7.957031 7.957031 " clip-rule="nonzero"/></clipPath><clipPath id="id2"><path d="M 40.039062 62 L 334 62 L 334 313 L 40.039062 313 Z M 40.039062 62 " clip-rule="nonzero"/></clipPath><clipPath id="id3"><path d="M 40.039062 62 L 334 62 L 334 313 L 40.039062 313 Z M 40.039062 62 " clip-rule="nonzero"/></clipPath><clipPath id="id4"><path d="M 143.179688 165.296875 L 261.503906 165.296875 L 261.503906 209.546875 L 143.179688 209.546875 Z M 143.179688 165.296875 " clip-rule="nonzero"/></clipPath></defs><g clip-path="url(#id1)"><path fill="#be2eaa" d="M 187.582031 7.957031 C 88.378906 7.957031 7.957031 88.378906 7.957031 187.582031 C 7.957031 286.789062 88.378906 367.207031 187.582031 367.207031 C 286.789062 367.207031 367.207031 286.789062 367.207031 187.582031 C 367.207031 88.378906 286.789062 7.957031 187.582031 7.957031 " fill-opacity="1" fill-rule="nonzero"/></g><g clip-path="url(#id2)"><path fill="#323130" d="M 331.964844 250.988281 C 329.425781 259.816406 323.875 268.125 315.800781 272.757812 C 308.285156 277.082031 298.800781 278.320312 290.554688 275.421875 C 290.960938 286.246094 284.929688 296.851562 275.335938 302.28125 C 263.140625 309.171875 247.769531 307.863281 236.199219 300.324219 C 233.019531 298.253906 230.089844 295.789062 227.539062 292.988281 C 225.722656 290.980469 223.949219 288.78125 222.566406 286.402344 C 220.1875 290.804688 217.03125 294.757812 213.300781 298.128906 C 207.644531 303.226562 200.8125 307.019531 193.601562 309.417969 C 185.925781 311.96875 177.84375 312.902344 169.78125 312.300781 C 160.714844 311.628906 151.828125 309.175781 143.5 305.605469 C 139.222656 303.773438 135.054688 301.664062 131.050781 299.292969 C 130.332031 298.871094 129.617188 298.4375 128.902344 297.996094 C 119.394531 302.746094 108.589844 305.019531 98.046875 304.890625 C 84.710938 304.734375 71.472656 300.398438 61.125 291.878906 C 51.578125 284.015625 44.613281 272.886719 41.824219 260.824219 C 40.433594 254.820312 40.058594 248.617188 40.882812 242.5 C 41.765625 235.960938 44.101562 229.695312 47.296875 223.9375 C 53.933594 211.988281 64.207031 202.484375 74.4375 193.644531 C 74.445312 193.640625 74.445312 193.640625 74.449219 193.632812 C 73.191406 189.464844 72.164062 185.21875 71.378906 180.929688 C 69.628906 171.335938 69.035156 161.546875 69.78125 151.820312 C 70.527344 142.101562 72.566406 132.457031 76.003906 123.320312 C 78.996094 115.359375 83.074219 107.804688 88.050781 100.914062 C 92.96875 94.089844 98.773438 87.90625 105.269531 82.570312 C 111.742188 77.25 118.929688 72.789062 126.597656 69.410156 C 134.261719 66.023438 142.441406 63.761719 150.777344 62.824219 C 159.128906 61.890625 167.625 62.253906 175.871094 63.84375 C 184.21875 65.453125 192.328125 68.25 199.839844 72.242188 C 206.402344 75.722656 212.425781 80.140625 217.652344 85.410156 C 218.007812 85.753906 218.351562 86.113281 218.691406 86.46875 C 232.730469 77.660156 252.285156 80.992188 264.519531 91.683594 C 271.480469 97.773438 276.382812 105.992188 279.191406 114.753906 C 280.617188 119.191406 281.519531 123.796875 281.933594 128.4375 C 282.394531 133.652344 282.007812 138.835938 281.8125 144.058594 C 281.609375 149.523438 281.796875 155.027344 283.90625 160.15625 C 285.738281 164.585938 288.75 168.4375 292.003906 171.902344 C 295.429688 175.539062 299.1875 178.839844 302.789062 182.289062 C 306.683594 186.007812 310.46875 189.839844 314 193.90625 C 321.011719 201.976562 327.054688 210.992188 330.566406 221.164062 C 333.871094 230.734375 334.785156 241.1875 331.964844 250.988281 " fill-opacity="1" fill-rule="nonzero"/></g><path fill="#4b3737" d="M 229.816406 148.828125 C 230.566406 149.574219 231.078125 150.589844 230.890625 151.664062 C 230.695312 152.789062 229.898438 153.675781 228.996094 154.320312 C 226.429688 156.144531 222.78125 156.441406 219.785156 155.804688 C 217.527344 155.324219 214.492188 153.980469 214.4375 151.285156 C 214.503906 148.210938 218.699219 146.875 221.128906 146.582031 C 223.996094 146.242188 227.664062 146.6875 229.816406 148.828125 Z M 189.476562 151.171875 C 189.488281 151.332031 189.476562 151.496094 189.449219 151.664062 C 189.253906 152.789062 188.449219 153.675781 187.546875 154.320312 C 184.984375 156.144531 181.339844 156.441406 178.335938 155.804688 C 178.300781 155.796875 178.265625 155.785156 178.226562 155.78125 C 182.078125 154.488281 185.84375 152.96875 189.476562 151.171875 Z M 293.90625 203.636719 C 292.273438 210.230469 287.570312 215.9375 281.589844 219.089844 C 275.359375 222.375 267.433594 223.207031 260.558594 221.164062 C 259.601562 223.582031 258.464844 225.933594 257.136719 228.191406 C 253.777344 233.921875 249.199219 238.875 243.898438 242.859375 C 232.597656 251.347656 218.511719 255.261719 204.492188 255.335938 C 189.105469 255.417969 173.683594 251.339844 159.761719 244.949219 C 149.660156 240.3125 139.929688 233.964844 132.78125 225.363281 C 132.058594 226.28125 131.292969 227.171875 130.5 228.035156 C 126.527344 232.351562 121.519531 236.402344 115.847656 238.195312 C 115.324219 238.359375 114.710938 238.277344 114.363281 237.800781 C 114.039062 237.347656 114.214844 236.855469 114.679688 236.617188 C 117.027344 235.359375 119.308594 234.09375 121.492188 232.566406 C 123.578125 231.089844 125.535156 229.425781 127.304688 227.59375 C 128.648438 226.210938 129.902344 224.742188 131.074219 223.203125 C 131.488281 222.660156 131.886719 222.109375 132.277344 221.550781 C 133.765625 219.421875 135.089844 217.183594 136.234375 214.859375 C 141.632812 203.960938 143.117188 191.683594 142.617188 179.644531 C 142.371094 173.648438 141.691406 167.6875 140.792969 161.765625 C 137.273438 161.832031 133.757812 161.78125 130.257812 161.605469 C 128.914062 161.539062 128.660156 159.773438 130.144531 159.746094 C 133.570312 159.6875 137.003906 159.609375 140.4375 159.46875 C 141.101562 159.445312 141.773438 159.417969 142.441406 159.382812 C 146.703125 159.179688 150.960938 158.863281 155.199219 158.34375 C 161.050781 157.628906 166.863281 156.53125 172.542969 154.933594 C 173.277344 154.734375 174.003906 154.519531 174.730469 154.296875 C 176.292969 153.820312 177.847656 153.300781 179.390625 152.738281 C 182.464844 151.625 185.472656 150.324219 188.390625 148.851562 C 188.976562 148.554688 189.5625 148.25 190.144531 147.9375 C 199.320312 143.003906 207.488281 136.265625 213.671875 127.785156 C 216.152344 124.382812 218.269531 120.722656 219.9375 116.863281 C 220.289062 116.050781 220.617188 115.238281 220.921875 114.410156 C 221.875 111.882812 222.617188 109.277344 223.144531 106.621094 C 223.339844 105.636719 225.152344 106.058594 224.996094 107.042969 C 224.453125 110.386719 223.570312 113.625 222.390625 116.738281 C 223.328125 118.335938 224.179688 119.988281 225.007812 121.625 C 226.355469 124.316406 227.632812 127.050781 228.878906 129.804688 C 231.265625 135.054688 233.59375 140.339844 236.363281 145.40625 C 241.472656 154.757812 248.210938 163.609375 258.058594 168.273438 C 258.746094 168.597656 259.445312 168.902344 260.152344 169.175781 C 260.757812 169.417969 261.367188 169.636719 261.984375 169.828125 C 266.238281 171.214844 270.785156 171.6875 275.203125 170.878906 C 276.117188 170.714844 276.945312 171.988281 275.816406 172.242188 C 271.292969 173.265625 266.742188 173.039062 262.398438 171.894531 C 263.105469 175.519531 263.707031 179.175781 264.160156 182.847656 C 266.402344 180.941406 269.160156 179.609375 272.082031 178.980469 C 278.628906 177.578125 285.152344 180.253906 289.46875 185.234375 C 293.839844 190.273438 295.511719 197.164062 293.90625 203.636719 Z M 108.476562 211.355469 C 108.140625 212.003906 107.78125 212.628906 107.398438 213.257812 C 106.15625 215.363281 104.746094 217.371094 103.167969 219.253906 C 102.328125 220.25 100.0625 219.128906 100.953125 217.964844 C 102.421875 216.039062 103.777344 214.042969 105.007812 211.964844 C 104.308594 211.527344 103.636719 211.050781 103.011719 210.566406 C 100.019531 208.21875 97.726562 204.964844 96.609375 201.320312 C 94.269531 193.644531 96.992188 185.019531 103.5625 180.335938 C 106.109375 178.523438 109.078125 177.355469 112.15625 176.933594 C 111.941406 175.300781 111.636719 173.675781 111.25 172.074219 C 110.929688 170.75 113.117188 170.59375 113.40625 171.71875 C 113.828125 173.382812 114.175781 175.066406 114.433594 176.757812 C 114.527344 177.363281 114.617188 177.964844 114.6875 178.5625 C 115.96875 189.207031 114.105469 200.164062 109.300781 209.777344 C 109.035156 210.3125 108.761719 210.835938 108.476562 211.355469 Z M 329.410156 226.050781 C 326.835938 216.050781 321.601562 207 315.21875 198.957031 C 308.835938 190.90625 301.25 184.074219 293.871094 176.980469 C 290.515625 173.753906 287.253906 170.355469 284.636719 166.488281 C 281.921875 162.46875 280.128906 158.015625 279.472656 153.199219 C 278.730469 147.707031 279.316406 142.15625 279.496094 136.65625 C 279.648438 132.058594 279.410156 127.445312 278.59375 122.910156 C 277.019531 114.1875 273.59375 105.746094 268.078125 98.757812 C 262.664062 91.914062 255.296875 86.984375 246.820312 84.84375 C 238.800781 82.8125 229.980469 83.390625 222.523438 87.085938 C 221.777344 87.453125 221.058594 87.847656 220.347656 88.269531 C 221.445312 89.484375 222.496094 90.722656 223.507812 92 C 224.203125 92.882812 222.648438 93.425781 222.074219 92.722656 C 221.074219 91.496094 220.039062 90.308594 218.945312 89.15625 C 218.398438 88.5625 217.835938 87.984375 217.261719 87.421875 C 217.003906 87.160156 216.746094 86.910156 216.488281 86.65625 C 212.582031 82.886719 208.238281 79.570312 203.625 76.726562 C 196.667969 72.429688 189.105469 69.222656 181.191406 67.171875 C 173.324219 65.128906 165.121094 64.253906 157.003906 64.605469 C 148.8125 64.964844 140.746094 66.59375 133.050781 69.414062 C 125.367188 72.226562 118.136719 76.160156 111.535156 80.972656 C 104.894531 85.8125 98.914062 91.515625 93.734375 97.890625 C 88.554688 104.265625 84.171875 111.300781 80.808594 118.796875 C 76.992188 127.292969 74.433594 136.375 73.152344 145.597656 C 71.828125 155.097656 71.804688 164.773438 72.980469 174.285156 C 73.707031 180.21875 74.925781 186.078125 76.578125 191.808594 C 76.757812 192.417969 76.9375 193.03125 77.121094 193.632812 C 77.96875 196.425781 78.921875 199.183594 79.972656 201.90625 C 80.394531 202.996094 80.820312 204.089844 81.261719 205.175781 C 81.695312 206.234375 82.03125 207.347656 82.511719 208.382812 C 83.050781 209.546875 80.921875 209.75 80.460938 208.75 C 79.929688 207.609375 79.285156 206.527344 78.773438 205.378906 C 78.269531 204.253906 77.792969 203.121094 77.34375 201.972656 C 76.503906 199.84375 75.730469 197.675781 75.03125 195.496094 C 66.578125 203.074219 58.339844 211.0625 52.117188 220.585938 C 48.519531 226.085938 45.679688 232.070312 44.128906 238.476562 C 42.726562 244.285156 42.535156 250.347656 43.410156 256.257812 C 45.152344 268.054688 51.101562 279.230469 59.644531 287.515625 C 68.773438 296.371094 80.828125 301.363281 93.433594 302.441406 C 104.835938 303.414062 116.25 301.203125 126.652344 296.59375 C 127.480469 296.230469 128.296875 295.847656 129.105469 295.449219 C 129.933594 295.050781 130.75 294.636719 131.558594 294.199219 C 132.980469 293.441406 134.375 292.632812 135.746094 291.796875 C 136.476562 291.34375 137.894531 292.445312 137.027344 293.078125 C 135.183594 294.417969 133.253906 295.644531 131.261719 296.753906 C 134.605469 298.730469 138.019531 300.570312 141.527344 302.203125 C 149.421875 305.875 157.808594 308.570312 166.464844 309.640625 C 174.226562 310.59375 182.089844 310.238281 189.652344 308.167969 C 196.726562 306.230469 203.457031 302.988281 209.234375 298.449219 C 214.183594 294.558594 218.453125 289.703125 221.386719 284.117188 C 221.332031 284.011719 221.285156 283.898438 221.238281 283.785156 C 220.996094 283.238281 221.484375 282.925781 221.984375 282.925781 C 222.273438 282.925781 222.570312 283.03125 222.726562 283.25 C 223.015625 283.636719 223.296875 284.023438 223.582031 284.410156 C 225.226562 286.667969 226.847656 288.925781 228.742188 291 C 230.847656 293.304688 233.171875 295.449219 235.703125 297.285156 C 240.820312 301.003906 246.777344 303.609375 253.085938 304.410156 C 259.503906 305.210938 266.136719 304.28125 272 301.519531 C 277.679688 298.855469 282.320312 294.457031 285.292969 288.9375 C 287.523438 284.789062 288.855469 280.089844 288.890625 275.386719 C 288.902344 275.183594 288.894531 274.984375 288.894531 274.777344 C 288.890625 274.050781 288.847656 273.328125 288.773438 272.605469 C 288.644531 271.285156 288.402344 269.972656 288.042969 268.679688 C 287.839844 267.9375 289.214844 267.945312 289.417969 268.605469 C 289.886719 270.148438 290.203125 271.707031 290.386719 273.269531 C 296.632812 275.570312 303.902344 275.207031 310.023438 272.867188 C 318.382812 269.660156 324.605469 262.550781 327.949219 254.378906 C 331.636719 245.371094 331.824219 235.414062 329.410156 226.050781 " fill-opacity="1" fill-rule="nonzero"/><path fill="#422d2d" d="M 232.285156 196.367188 C 233.605469 192.007812 233.242188 187.28125 231.382812 183.128906 C 230.554688 181.289062 229.429688 179.554688 228.0625 178.0625 C 226.230469 179.0625 224.554688 180.328125 223.164062 181.710938 C 218.785156 186.132812 215.730469 193.105469 217.964844 199.289062 C 218.914062 201.914062 220.796875 204.089844 223.339844 205.273438 C 223.953125 205.5625 224.589844 205.785156 225.238281 205.953125 C 225.457031 206.007812 225.675781 206.058594 225.898438 206.101562 C 228.808594 203.457031 231.136719 200.15625 232.285156 196.367188 Z M 169.535156 197.992188 C 168.3125 199.699219 166.871094 201.183594 165.371094 202.632812 C 160.183594 199.90625 156.058594 194.878906 154.808594 189.152344 C 154.1875 186.332031 154.238281 183.25 155.4375 180.578125 C 156.597656 177.988281 158.6875 175.964844 161.332031 174.933594 C 162.148438 174.617188 162.976562 174.394531 163.8125 174.265625 C 164.214844 174.199219 164.617188 174.152344 165.023438 174.128906 C 166.570312 174.035156 168.140625 174.222656 169.660156 174.628906 C 170.167969 174.761719 170.671875 174.921875 171.167969 175.109375 C 171.359375 175.171875 171.546875 175.246094 171.742188 175.320312 C 171.742188 175.332031 171.746094 175.351562 171.753906 175.363281 C 174.003906 180.40625 174.394531 186.160156 172.773438 191.457031 C 172.050781 193.800781 170.960938 196 169.535156 197.992188 " fill-opacity="1" fill-rule="nonzero"/><path fill="#ffffff" d="M 231.6875 205.988281 C 238.320312 204.535156 244.117188 199.214844 246.378906 192.84375 C 248.308594 187.394531 247.59375 180.515625 242.1875 177.328125 C 240.898438 176.570312 239.539062 176.105469 238.152344 175.898438 C 237.851562 175.847656 237.554688 175.820312 237.253906 175.792969 C 236.921875 175.765625 236.585938 175.75 236.25 175.753906 C 234.460938 175.753906 232.664062 176.117188 230.933594 176.753906 C 230.894531 176.765625 230.859375 176.777344 230.820312 176.785156 C 230.40625 176.9375 230 177.109375 229.597656 177.292969 C 232.507812 180.367188 234.414062 184.289062 235.054688 188.496094 C 235.789062 193.316406 234.605469 198.421875 231.882812 202.464844 C 230.890625 203.9375 229.730469 205.242188 228.386719 206.347656 C 229.492188 206.351562 230.609375 206.222656 231.6875 205.988281 Z M 167.957031 203.773438 C 167.835938 203.726562 167.703125 203.683594 167.578125 203.628906 C 168.976562 202.574219 170.191406 201.296875 171.242188 199.894531 C 176.238281 193.253906 177.425781 184.417969 174.515625 176.703125 C 176.023438 177.601562 177.414062 178.683594 178.605469 179.859375 C 183.394531 184.699219 186.703125 192.761719 183.066406 199.214844 C 180.039062 204.582031 173.417969 205.707031 167.957031 203.773438 " fill-opacity="1" fill-rule="nonzero"/><path fill="#ffddb9" d="M 277.859375 218.191406 C 283.644531 215.898438 288.414062 211.160156 290.660156 205.34375 C 292.867188 199.632812 292.328125 193.289062 288.941406 188.152344 C 285.828125 183.417969 280.507812 180.085938 274.710938 180.59375 C 270.914062 180.933594 267.160156 182.675781 264.433594 185.398438 C 265.054688 191.488281 265.195312 197.605469 264.617188 203.6875 C 266.417969 202.199219 268.242188 200.738281 270.0625 199.265625 C 271.765625 197.886719 273.507812 196.1875 275.660156 195.550781 C 277.488281 195.015625 279.683594 195.441406 280.898438 196.992188 C 281.203125 197.371094 281.058594 197.871094 280.636719 198.085938 C 280.164062 198.324219 279.589844 198.125 279.261719 197.753906 C 278.207031 196.5625 276.359375 197.382812 275.296875 198.125 C 273.617188 199.296875 272.105469 200.75 270.539062 202.070312 C 268.90625 203.449219 267.269531 204.832031 265.625 206.199219 C 265.144531 206.597656 264.667969 207.003906 264.179688 207.410156 L 264.179688 207.414062 C 264.109375 207.890625 264.03125 208.367188 263.957031 208.839844 C 263.375 212.347656 262.503906 215.800781 261.320312 219.140625 C 263.441406 219.605469 265.585938 219.910156 267.769531 219.960938 C 271.195312 220.042969 274.667969 219.453125 277.859375 218.191406 Z M 210.839844 202.363281 C 211.082031 199.652344 210.714844 196.964844 209.835938 194.390625 C 209.511719 193.445312 207.679688 193.644531 208.003906 194.773438 C 208.660156 197.089844 208.855469 199.59375 208.609375 201.992188 C 208.484375 203.179688 208.234375 204.359375 207.886719 205.5 C 207.527344 206.695312 206.964844 207.84375 206.714844 209.0625 C 206.546875 209.835938 207.816406 210.363281 208.328125 209.816406 C 210.085938 207.914062 210.605469 204.863281 210.839844 202.363281 Z M 187.347656 222.152344 C 191.007812 224.832031 195.414062 226.648438 200 226.628906 C 204.300781 226.597656 208.292969 224.953125 211.171875 221.726562 C 211.703125 221.128906 210.597656 220.554688 210.121094 221.011719 C 208.507812 222.578125 206.472656 223.480469 204.3125 224.003906 C 200.574219 224.910156 196.691406 224.410156 193.195312 222.878906 C 191.367188 222.070312 189.632812 220.964844 188.050781 219.738281 C 186.441406 218.492188 185.035156 217.011719 183.488281 215.703125 C 182.699219 215.042969 180.875 215.5625 181.683594 216.734375 C 183.15625 218.878906 185.25 220.625 187.347656 222.152344 Z M 261.191406 209.714844 C 261.035156 210.550781 260.851562 211.386719 260.660156 212.21875 C 260.152344 214.355469 259.53125 216.460938 258.785156 218.519531 C 258.574219 219.117188 258.347656 219.703125 258.113281 220.292969 C 256.667969 223.886719 254.824219 227.320312 252.550781 230.480469 C 248.785156 235.71875 243.957031 240.101562 238.523438 243.558594 C 226.789062 251.023438 212.746094 253.804688 198.972656 252.988281 C 191.1875 252.527344 183.492188 251.019531 176.027344 248.785156 C 169.535156 246.84375 163.171875 244.398438 157.128906 241.316406 C 148.433594 236.875 140.445312 231.019531 134.050781 223.6875 C 139.46875 216.238281 142.792969 207.316406 144.230469 198.257812 C 146.160156 186.089844 145 173.769531 142.863281 161.703125 C 148.367188 161.515625 153.859375 161.023438 159.296875 160.214844 C 164.707031 159.410156 170.089844 158.261719 175.34375 156.683594 C 176.6875 157.261719 178.128906 157.609375 179.351562 157.75 C 182.988281 158.167969 187.585938 157.554688 190.210938 154.710938 C 191.199219 153.636719 191.839844 152.242188 191.617188 150.757812 C 191.585938 150.546875 191.539062 150.34375 191.476562 150.144531 C 195.578125 147.972656 199.492188 145.433594 203.144531 142.484375 C 210.839844 136.285156 217.277344 128.449219 221.261719 119.480469 C 221.988281 120.902344 222.703125 122.34375 223.390625 123.792969 C 224.867188 126.90625 226.253906 130.054688 227.679688 133.195312 C 232.375 143.578125 237.402344 154.148438 245.703125 162.183594 C 249.867188 166.214844 254.972656 169.503906 260.492188 171.328125 C 260.492188 171.335938 260.5 171.355469 260.5 171.367188 C 261.179688 175.820312 261.773438 180.339844 262.148438 184.875 C 262.234375 185.910156 262.304688 186.9375 262.371094 187.96875 C 262.722656 193.988281 262.640625 200.015625 261.820312 205.960938 C 261.644531 207.214844 261.441406 208.46875 261.191406 209.714844 Z M 244.546875 176.734375 C 245.949219 174.769531 246.296875 171.707031 244.632812 169.800781 C 244.433594 169.578125 244.085938 169.488281 243.804688 169.570312 C 243.570312 169.636719 243.304688 169.875 243.375 170.144531 C 243.644531 171.171875 243.890625 172.246094 243.8125 173.296875 C 243.75 174.164062 243.488281 174.996094 243.027344 175.742188 C 242.460938 175.421875 241.863281 175.152344 241.246094 174.929688 C 240.3125 174.585938 239.367188 174.351562 238.417969 174.210938 C 238.273438 174.1875 238.140625 174.171875 238.007812 174.152344 C 238.375 172.746094 238.3125 171.226562 237.609375 169.929688 C 237.449219 169.640625 237.101562 169.519531 236.792969 169.566406 C 236.515625 169.605469 236.21875 169.835938 236.289062 170.144531 C 236.558594 171.441406 236.644531 172.78125 236.28125 174.03125 C 234.691406 173.992188 233.105469 174.207031 231.558594 174.601562 C 231.546875 174.464844 231.527344 174.324219 231.5 174.179688 C 231.417969 173.808594 231.292969 173.445312 231.101562 173.113281 C 230.882812 172.738281 230.578125 172.433594 230.246094 172.15625 C 230.011719 171.964844 229.59375 171.976562 229.359375 172.152344 C 229.105469 172.335938 229.125 172.597656 229.269531 172.832031 C 229.269531 172.832031 229.277344 172.84375 229.292969 172.867188 C 229.3125 172.902344 229.347656 172.949219 229.351562 172.96875 C 229.394531 173.035156 229.425781 173.097656 229.457031 173.160156 C 229.519531 173.289062 229.570312 173.425781 229.628906 173.554688 C 229.679688 173.6875 229.722656 173.820312 229.773438 173.953125 C 229.773438 173.960938 229.78125 173.972656 229.78125 173.976562 C 229.785156 173.992188 229.792969 174 229.792969 174.003906 C 229.796875 174.023438 229.804688 174.042969 229.804688 174.054688 C 229.820312 174.125 229.835938 174.195312 229.847656 174.265625 C 229.875 174.410156 229.890625 174.558594 229.90625 174.710938 C 229.910156 174.78125 229.910156 174.851562 229.910156 174.921875 C 229.910156 174.921875 229.914062 174.929688 229.910156 174.941406 L 229.910156 174.945312 C 229.910156 174.96875 229.90625 175.015625 229.90625 175.027344 C 229.90625 175.058594 229.898438 175.089844 229.890625 175.121094 C 229.28125 175.332031 228.683594 175.578125 228.097656 175.847656 C 227.621094 176.070312 227.152344 176.304688 226.6875 176.558594 C 224.777344 177.613281 223.011719 178.941406 221.492188 180.445312 C 220.785156 181.15625 220.125 181.910156 219.507812 182.695312 C 215.355469 187.984375 213.273438 195.953125 217.023438 202.023438 C 218.820312 204.9375 221.550781 206.726562 224.601562 207.550781 C 224.683594 207.574219 224.757812 207.589844 224.839844 207.609375 C 225.273438 207.726562 225.714844 207.8125 226.167969 207.882812 L 226.171875 207.882812 C 226.886719 208.003906 227.621094 208.058594 228.355469 208.078125 C 230.496094 208.128906 232.675781 207.773438 234.710938 207.054688 C 241.8125 204.558594 247.734375 198.21875 249.238281 190.761719 C 249.878906 187.558594 249.664062 184.101562 248.199219 181.144531 C 247.339844 179.410156 246.078125 177.894531 244.546875 176.734375 Z M 230.609375 147.058594 C 227.40625 144.671875 222.792969 144.234375 218.992188 145.109375 C 215.976562 145.808594 212.425781 147.71875 212.269531 151.171875 C 212.265625 151.210938 212.265625 151.25 212.265625 151.296875 L 212.265625 151.316406 C 212.265625 151.351562 212.265625 151.386719 212.269531 151.414062 C 212.269531 151.421875 212.269531 151.421875 212.269531 151.425781 C 212.457031 155.445312 217.441406 157.363281 220.796875 157.75 C 224.4375 158.167969 229.035156 157.554688 231.660156 154.710938 C 232.652344 153.636719 233.289062 152.242188 233.066406 150.757812 C 232.839844 149.230469 231.816406 147.960938 230.609375 147.058594 Z M 178.128906 176.957031 C 176.101562 175.367188 173.683594 174.066406 171.125 173.253906 C 171.136719 173.136719 171.148438 173.027344 171.171875 172.914062 C 171.199219 172.757812 171.242188 172.605469 171.292969 172.453125 C 171.3125 172.398438 171.335938 172.339844 171.347656 172.289062 C 171.347656 172.289062 171.34375 172.28125 171.355469 172.269531 C 171.355469 172.261719 171.359375 172.261719 171.359375 172.257812 L 171.359375 172.253906 C 171.378906 172.21875 171.386719 172.179688 171.40625 172.148438 C 171.53125 171.863281 171.640625 171.59375 171.808594 171.335938 C 171.988281 171.078125 171.753906 170.761719 171.53125 170.644531 C 171.238281 170.484375 170.90625 170.523438 170.652344 170.726562 C 170.363281 170.957031 170.074219 171.242188 169.890625 171.570312 C 169.710938 171.886719 169.585938 172.246094 169.515625 172.605469 C 169.503906 172.671875 169.492188 172.738281 169.488281 172.808594 C 167.890625 172.441406 166.265625 172.273438 164.664062 172.363281 C 164.390625 171.191406 164.492188 169.96875 164.734375 168.75 C 164.800781 168.425781 164.496094 168.1875 164.230469 168.109375 C 163.941406 168.023438 163.574219 168.101562 163.414062 168.375 C 162.699219 169.636719 162.640625 171.15625 163 172.550781 C 161.417969 172.808594 159.890625 173.339844 158.453125 174.175781 C 158.304688 174.265625 158.164062 174.351562 158.023438 174.445312 C 157.554688 173.71875 157.285156 172.886719 157.214844 172 C 157.132812 170.890625 157.382812 169.847656 157.644531 168.753906 C 157.789062 168.132812 156.75 167.871094 156.394531 168.25 C 154.582031 170.203125 155.167969 173.472656 156.691406 175.425781 L 156.691406 175.433594 C 154.828125 177.015625 153.476562 179.121094 152.785156 181.511719 C 151.839844 184.765625 152.191406 188.277344 153.277344 191.453125 C 155.121094 196.832031 159.261719 201.496094 164.351562 204.148438 C 164.816406 204.382812 165.289062 204.605469 165.761719 204.808594 C 167.019531 205.355469 168.328125 205.777344 169.660156 206.066406 C 172.925781 206.761719 176.429688 206.59375 179.496094 205.191406 C 182.40625 203.859375 184.664062 201.414062 185.820312 198.433594 C 188.460938 191.632812 185.25 183.886719 180.382812 178.96875 C 179.667969 178.257812 178.921875 177.578125 178.128906 176.957031 Z M 106.078125 210.078125 C 105.332031 209.59375 104.625 209.050781 103.960938 208.464844 C 98.503906 203.613281 96.957031 195.722656 99.730469 189.03125 C 101.90625 183.78125 106.875 179.980469 112.390625 178.863281 C 112.519531 180.140625 112.597656 181.421875 112.632812 182.707031 C 112.800781 189.015625 111.839844 195.347656 109.863281 201.34375 C 108.859375 204.375 107.585938 207.292969 106.078125 210.078125 " fill-opacity="1" fill-rule="nonzero"/><g clip-path="url(#id3)"><path fill="#323130" d="M 327.949219 254.378906 C 324.605469 262.550781 318.382812 269.660156 310.023438 272.867188 C 303.902344 275.207031 296.632812 275.570312 290.386719 273.269531 C 290.203125 271.707031 289.886719 270.148438 289.417969 268.605469 C 289.214844 267.945312 287.839844 267.9375 288.042969 268.679688 C 288.402344 269.972656 288.644531 271.285156 288.773438 272.605469 C 288.847656 273.328125 288.890625 274.050781 288.894531 274.777344 C 288.894531 274.984375 288.902344 275.183594 288.890625 275.386719 C 288.855469 280.089844 287.523438 284.789062 285.292969 288.9375 C 282.320312 294.457031 277.679688 298.855469 272 301.519531 C 266.136719 304.28125 259.503906 305.210938 253.085938 304.410156 C 246.777344 303.609375 240.820312 301.003906 235.703125 297.285156 C 233.171875 295.449219 230.847656 293.304688 228.742188 291 C 226.847656 288.925781 225.226562 286.667969 223.582031 284.410156 C 223.296875 284.023438 223.015625 283.636719 222.726562 283.25 C 222.570312 283.03125 222.273438 282.925781 221.984375 282.925781 C 221.484375 282.925781 220.996094 283.238281 221.238281 283.785156 C 221.285156 283.898438 221.332031 284.011719 221.386719 284.117188 C 218.453125 289.703125 214.183594 294.558594 209.234375 298.449219 C 203.457031 302.988281 196.726562 306.230469 189.652344 308.167969 C 182.089844 310.238281 174.226562 310.59375 166.464844 309.640625 C 157.808594 308.570312 149.421875 305.875 141.527344 302.203125 C 138.019531 300.570312 134.605469 298.730469 131.261719 296.753906 C 133.253906 295.644531 135.183594 294.417969 137.027344 293.078125 C 137.894531 292.445312 136.476562 291.34375 135.746094 291.796875 C 134.375 292.632812 132.980469 293.441406 131.558594 294.199219 C 130.75 294.636719 129.933594 295.050781 129.105469 295.449219 C 128.296875 295.847656 127.480469 296.230469 126.652344 296.59375 C 116.25 301.203125 104.835938 303.414062 93.433594 302.441406 C 80.828125 301.363281 68.773438 296.371094 59.644531 287.515625 C 51.101562 279.230469 45.152344 268.054688 43.410156 256.257812 C 42.535156 250.347656 42.726562 244.285156 44.128906 238.476562 C 45.679688 232.070312 48.519531 226.085938 52.117188 220.585938 C 58.339844 211.0625 66.578125 203.074219 75.03125 195.496094 C 75.730469 197.675781 76.503906 199.84375 77.34375 201.972656 C 77.792969 203.121094 78.269531 204.253906 78.773438 205.378906 C 79.285156 206.527344 79.929688 207.609375 80.460938 208.75 C 80.921875 209.75 83.050781 209.546875 82.511719 208.382812 C 82.03125 207.347656 81.695312 206.234375 81.261719 205.175781 C 80.820312 204.089844 80.394531 202.996094 79.972656 201.90625 C 78.921875 199.183594 77.96875 196.425781 77.121094 193.632812 C 76.9375 193.03125 76.757812 192.417969 76.578125 191.808594 C 74.925781 186.078125 73.707031 180.21875 72.980469 174.285156 C 71.804688 164.773438 71.828125 155.097656 73.152344 145.597656 C 74.433594 136.375 76.992188 127.292969 80.808594 118.796875 C 84.171875 111.300781 88.554688 104.265625 93.734375 97.890625 C 98.914062 91.515625 104.894531 85.8125 111.535156 80.972656 C 118.136719 76.160156 125.367188 72.226562 133.050781 69.414062 C 140.746094 66.59375 148.8125 64.964844 157.003906 64.605469 C 165.121094 64.253906 173.324219 65.128906 181.191406 67.171875 C 189.105469 69.222656 196.667969 72.429688 203.625 76.726562 C 208.238281 79.570312 212.582031 82.886719 216.488281 86.65625 C 216.746094 86.910156 217.003906 87.160156 217.261719 87.421875 C 217.835938 87.984375 218.398438 88.5625 218.945312 89.15625 C 220.039062 90.308594 221.074219 91.496094 222.074219 92.722656 C 222.648438 93.425781 224.203125 92.882812 223.507812 92 C 222.496094 90.722656 221.445312 89.484375 220.347656 88.269531 C 221.058594 87.847656 221.777344 87.453125 222.523438 87.085938 C 229.980469 83.390625 238.800781 82.8125 246.820312 84.84375 C 255.296875 86.984375 262.664062 91.914062 268.078125 98.757812 C 273.59375 105.746094 277.019531 114.1875 278.59375 122.910156 C 279.410156 127.445312 279.648438 132.058594 279.496094 136.65625 C 279.316406 142.15625 278.730469 147.707031 279.472656 153.199219 C 280.128906 158.015625 281.921875 162.46875 284.636719 166.488281 C 287.253906 170.355469 290.515625 173.753906 293.871094 176.980469 C 301.25 184.074219 308.835938 190.90625 315.21875 198.957031 C 321.601562 207 326.835938 216.050781 329.410156 226.050781 C 331.824219 235.414062 331.636719 245.371094 327.949219 254.378906 Z M 330.566406 221.164062 C 327.054688 210.992188 321.011719 201.976562 314 193.90625 C 310.46875 189.839844 306.683594 186.007812 302.789062 182.289062 C 299.1875 178.839844 295.429688 175.539062 292.003906 171.902344 C 288.75 168.4375 285.738281 164.585938 283.90625 160.15625 C 281.796875 155.027344 281.609375 149.523438 281.8125 144.058594 C 282.007812 138.835938 282.394531 133.652344 281.933594 128.4375 C 281.519531 123.796875 280.617188 119.191406 279.191406 114.753906 C 276.382812 105.992188 271.480469 97.773438 264.519531 91.683594 C 252.285156 80.992188 232.730469 77.660156 218.691406 86.46875 C 218.351562 86.113281 218.007812 85.753906 217.652344 85.410156 C 212.425781 80.140625 206.402344 75.722656 199.839844 72.242188 C 192.328125 68.25 184.21875 65.453125 175.871094 63.84375 C 167.625 62.253906 159.128906 61.890625 150.777344 62.824219 C 142.441406 63.761719 134.261719 66.023438 126.597656 69.410156 C 118.929688 72.789062 111.742188 77.25 105.269531 82.570312 C 98.773438 87.90625 92.96875 94.089844 88.050781 100.914062 C 83.074219 107.804688 78.996094 115.359375 76.003906 123.320312 C 72.566406 132.457031 70.527344 142.101562 69.78125 151.820312 C 69.035156 161.546875 69.628906 171.335938 71.378906 180.929688 C 72.164062 185.21875 73.191406 189.464844 74.449219 193.632812 C 74.445312 193.640625 74.445312 193.640625 74.4375 193.644531 C 64.207031 202.484375 53.933594 211.988281 47.296875 223.9375 C 44.101562 229.695312 41.765625 235.960938 40.882812 242.5 C 40.058594 248.617188 40.433594 254.820312 41.824219 260.824219 C 44.613281 272.886719 51.578125 284.015625 61.125 291.878906 C 71.472656 300.398438 84.710938 304.734375 98.046875 304.890625 C 108.589844 305.019531 119.394531 302.746094 128.902344 297.996094 C 129.617188 298.4375 130.332031 298.871094 131.050781 299.292969 C 135.054688 301.664062 139.222656 303.773438 143.5 305.605469 C 151.828125 309.175781 160.714844 311.628906 169.78125 312.300781 C 177.84375 312.902344 185.925781 311.96875 193.601562 309.417969 C 200.8125 307.019531 207.644531 303.226562 213.300781 298.128906 C 217.03125 294.757812 220.1875 290.804688 222.566406 286.402344 C 223.949219 288.78125 225.722656 290.980469 227.539062 292.988281 C 230.089844 295.789062 233.019531 298.253906 236.199219 300.324219 C 247.769531 307.863281 263.140625 309.171875 275.335938 302.28125 C 284.929688 296.851562 290.960938 286.246094 290.554688 275.421875 C 298.800781 278.320312 308.285156 277.082031 315.800781 272.757812 C 323.875 268.125 329.425781 259.816406 331.964844 250.988281 C 334.785156 241.1875 333.871094 230.734375 330.566406 221.164062 Z M 290.660156 205.34375 C 288.414062 211.160156 283.644531 215.898438 277.859375 218.191406 C 274.667969 219.453125 271.195312 220.042969 267.769531 219.960938 C 265.585938 219.910156 263.441406 219.605469 261.320312 219.140625 C 262.503906 215.800781 263.375 212.347656 263.957031 208.839844 C 264.03125 208.367188 264.109375 207.890625 264.179688 207.414062 L 264.179688 207.410156 C 264.667969 207.003906 265.144531 206.597656 265.625 206.199219 C 267.269531 204.832031 268.90625 203.449219 270.539062 202.070312 C 272.105469 200.75 273.617188 199.296875 275.296875 198.125 C 276.359375 197.382812 278.207031 196.5625 279.261719 197.753906 C 279.589844 198.125 280.164062 198.324219 280.636719 198.085938 C 281.058594 197.871094 281.203125 197.371094 280.898438 196.992188 C 279.683594 195.441406 277.488281 195.015625 275.660156 195.550781 C 273.507812 196.1875 271.765625 197.886719 270.0625 199.265625 C 268.242188 200.738281 266.417969 202.199219 264.617188 203.6875 C 265.195312 197.605469 265.054688 191.488281 264.433594 185.398438 C 267.160156 182.675781 270.914062 180.933594 274.710938 180.59375 C 280.507812 180.085938 285.828125 183.417969 288.941406 188.152344 C 292.328125 193.289062 292.867188 199.632812 290.660156 205.34375 Z M 260.660156 212.21875 C 260.152344 214.355469 259.53125 216.460938 258.785156 218.519531 C 258.574219 219.117188 258.347656 219.703125 258.113281 220.292969 C 256.667969 223.886719 254.824219 227.320312 252.550781 230.480469 C 248.785156 235.71875 243.957031 240.101562 238.523438 243.558594 C 226.789062 251.023438 212.746094 253.804688 198.972656 252.988281 C 191.1875 252.527344 183.492188 251.019531 176.027344 248.785156 C 169.535156 246.84375 163.171875 244.398438 157.128906 241.316406 C 148.433594 236.875 140.445312 231.019531 134.050781 223.6875 C 139.46875 216.238281 142.792969 207.316406 144.230469 198.257812 C 146.160156 186.089844 145 173.769531 142.863281 161.703125 C 148.367188 161.515625 153.859375 161.023438 159.296875 160.214844 C 164.707031 159.410156 170.089844 158.261719 175.34375 156.683594 C 176.6875 157.261719 178.128906 157.609375 179.351562 157.75 C 182.988281 158.167969 187.585938 157.554688 190.210938 154.710938 C 191.199219 153.636719 191.839844 152.242188 191.617188 150.757812 C 191.585938 150.546875 191.539062 150.34375 191.476562 150.144531 C 195.578125 147.972656 199.492188 145.433594 203.144531 142.484375 C 210.839844 136.285156 217.277344 128.449219 221.261719 119.480469 C 221.988281 120.902344 222.703125 122.34375 223.390625 123.792969 C 224.867188 126.90625 226.253906 130.054688 227.679688 133.195312 C 232.375 143.578125 237.402344 154.148438 245.703125 162.183594 C 249.867188 166.214844 254.972656 169.503906 260.492188 171.328125 C 260.492188 171.335938 260.5 171.355469 260.5 171.367188 C 261.179688 175.820312 261.773438 180.339844 262.148438 184.875 C 262.234375 185.910156 262.304688 186.9375 262.371094 187.96875 C 262.722656 193.988281 262.640625 200.015625 261.820312 205.960938 C 261.644531 207.214844 261.441406 208.46875 261.191406 209.714844 C 261.035156 210.550781 260.851562 211.386719 260.660156 212.21875 Z M 189.476562 151.171875 C 189.488281 151.332031 189.476562 151.496094 189.449219 151.664062 C 189.253906 152.789062 188.449219 153.675781 187.546875 154.320312 C 184.984375 156.144531 181.339844 156.441406 178.335938 155.804688 C 178.300781 155.796875 178.265625 155.785156 178.226562 155.78125 C 182.078125 154.488281 185.84375 152.96875 189.476562 151.171875 Z M 272.082031 178.980469 C 269.160156 179.609375 266.402344 180.941406 264.160156 182.847656 C 263.707031 179.175781 263.105469 175.519531 262.398438 171.894531 C 266.742188 173.039062 271.292969 173.265625 275.816406 172.242188 C 276.945312 171.988281 276.117188 170.714844 275.203125 170.878906 C 270.785156 171.6875 266.238281 171.214844 261.984375 169.828125 C 261.367188 169.636719 260.757812 169.417969 260.152344 169.175781 C 259.445312 168.902344 258.746094 168.597656 258.058594 168.273438 C 248.210938 163.609375 241.472656 154.757812 236.363281 145.40625 C 233.59375 140.339844 231.265625 135.054688 228.878906 129.804688 C 227.632812 127.050781 226.355469 124.316406 225.007812 121.625 C 224.179688 119.988281 223.328125 118.335938 222.390625 116.738281 C 223.570312 113.625 224.453125 110.386719 224.996094 107.042969 C 225.152344 106.058594 223.339844 105.636719 223.144531 106.621094 C 222.617188 109.277344 221.875 111.882812 220.921875 114.410156 C 220.617188 115.238281 220.289062 116.050781 219.9375 116.863281 C 218.269531 120.722656 216.152344 124.382812 213.671875 127.785156 C 207.488281 136.265625 199.320312 143.003906 190.144531 147.9375 C 189.5625 148.25 188.976562 148.554688 188.390625 148.851562 C 185.472656 150.324219 182.464844 151.625 179.390625 152.738281 C 177.847656 153.300781 176.292969 153.820312 174.730469 154.296875 C 174.003906 154.519531 173.277344 154.734375 172.542969 154.933594 C 166.863281 156.53125 161.050781 157.628906 155.199219 158.34375 C 150.960938 158.863281 146.703125 159.179688 142.441406 159.382812 C 141.773438 159.417969 141.101562 159.445312 140.4375 159.46875 C 137.003906 159.609375 133.570312 159.6875 130.144531 159.746094 C 128.660156 159.773438 128.914062 161.539062 130.257812 161.605469 C 133.757812 161.78125 137.273438 161.832031 140.792969 161.765625 C 141.691406 167.6875 142.371094 173.648438 142.617188 179.644531 C 143.117188 191.683594 141.632812 203.960938 136.234375 214.859375 C 135.089844 217.183594 133.765625 219.421875 132.277344 221.550781 C 131.886719 222.109375 131.488281 222.660156 131.074219 223.203125 C 129.902344 224.742188 128.648438 226.210938 127.304688 227.59375 C 125.535156 229.425781 123.578125 231.089844 121.492188 232.566406 C 119.308594 234.09375 117.027344 235.359375 114.679688 236.617188 C 114.214844 236.855469 114.039062 237.347656 114.363281 237.800781 C 114.710938 238.277344 115.324219 238.359375 115.847656 238.195312 C 121.519531 236.402344 126.527344 232.351562 130.5 228.035156 C 131.292969 227.171875 132.058594 226.28125 132.78125 225.363281 C 139.929688 233.964844 149.660156 240.3125 159.761719 244.949219 C 173.683594 251.339844 189.105469 255.417969 204.492188 255.335938 C 218.511719 255.261719 232.597656 251.347656 243.898438 242.859375 C 249.199219 238.875 253.777344 233.921875 257.136719 228.191406 C 258.464844 225.933594 259.601562 223.582031 260.558594 221.164062 C 267.433594 223.207031 275.359375 222.375 281.589844 219.089844 C 287.570312 215.9375 292.273438 210.230469 293.90625 203.636719 C 295.511719 197.164062 293.839844 190.273438 289.46875 185.234375 C 285.152344 180.253906 278.628906 177.578125 272.082031 178.980469 Z M 246.378906 192.84375 C 244.117188 199.214844 238.320312 204.535156 231.6875 205.988281 C 230.609375 206.222656 229.492188 206.351562 228.386719 206.347656 C 229.730469 205.242188 230.890625 203.9375 231.882812 202.464844 C 234.605469 198.421875 235.789062 193.316406 235.054688 188.496094 C 234.414062 184.289062 232.507812 180.367188 229.597656 177.292969 C 230 177.109375 230.40625 176.9375 230.820312 176.785156 C 230.859375 176.777344 230.894531 176.765625 230.933594 176.753906 C 232.664062 176.117188 234.460938 175.753906 236.25 175.753906 C 236.585938 175.75 236.921875 175.765625 237.253906 175.792969 C 237.554688 175.820312 237.851562 175.847656 238.152344 175.898438 C 239.539062 176.105469 240.898438 176.570312 242.1875 177.328125 C 247.59375 180.515625 248.308594 187.394531 246.378906 192.84375 Z M 225.898438 206.101562 C 225.675781 206.058594 225.457031 206.007812 225.238281 205.953125 C 224.589844 205.785156 223.953125 205.5625 223.339844 205.273438 C 220.796875 204.089844 218.914062 201.914062 217.964844 199.289062 C 215.730469 193.105469 218.785156 186.132812 223.164062 181.710938 C 224.554688 180.328125 226.230469 179.0625 228.0625 178.0625 C 229.429688 179.554688 230.554688 181.289062 231.382812 183.128906 C 233.242188 187.28125 233.605469 192.007812 232.285156 196.367188 C 231.136719 200.15625 228.808594 203.457031 225.898438 206.101562 Z M 244.546875 176.734375 C 245.949219 174.769531 246.296875 171.707031 244.632812 169.800781 C 244.433594 169.578125 244.085938 169.488281 243.804688 169.570312 C 243.570312 169.636719 243.304688 169.875 243.375 170.144531 C 243.644531 171.171875 243.890625 172.246094 243.8125 173.296875 C 243.75 174.164062 243.488281 174.996094 243.027344 175.742188 C 242.460938 175.421875 241.863281 175.152344 241.246094 174.929688 C 240.3125 174.585938 239.367188 174.351562 238.417969 174.210938 C 238.273438 174.1875 238.140625 174.171875 238.007812 174.152344 C 238.375 172.746094 238.3125 171.226562 237.609375 169.929688 C 237.449219 169.640625 237.101562 169.519531 236.792969 169.566406 C 236.515625 169.605469 236.21875 169.835938 236.289062 170.144531 C 236.558594 171.441406 236.644531 172.78125 236.28125 174.03125 C 234.691406 173.992188 233.105469 174.207031 231.558594 174.601562 C 231.546875 174.464844 231.527344 174.324219 231.5 174.179688 C 231.417969 173.808594 231.292969 173.445312 231.101562 173.113281 C 230.882812 172.738281 230.578125 172.433594 230.246094 172.15625 C 230.011719 171.964844 229.59375 171.976562 229.359375 172.152344 C 229.105469 172.335938 229.125 172.597656 229.269531 172.832031 C 229.269531 172.832031 229.277344 172.84375 229.292969 172.867188 C 229.3125 172.902344 229.347656 172.949219 229.351562 172.96875 C 229.394531 173.035156 229.425781 173.097656 229.457031 173.160156 C 229.519531 173.289062 229.570312 173.425781 229.628906 173.554688 C 229.679688 173.6875 229.722656 173.820312 229.773438 173.953125 C 229.773438 173.960938 229.78125 173.972656 229.78125 173.976562 C 229.785156 173.992188 229.792969 174 229.792969 174.003906 C 229.796875 174.023438 229.804688 174.042969 229.804688 174.054688 C 229.820312 174.125 229.835938 174.195312 229.847656 174.265625 C 229.875 174.410156 229.890625 174.558594 229.90625 174.710938 C 229.910156 174.78125 229.910156 174.851562 229.910156 174.921875 C 229.910156 174.921875 229.914062 174.929688 229.910156 174.941406 L 229.910156 174.945312 C 229.910156 174.96875 229.90625 175.015625 229.90625 175.027344 C 229.90625 175.058594 229.898438 175.089844 229.890625 175.121094 C 229.28125 175.332031 228.683594 175.578125 228.097656 175.847656 C 227.621094 176.070312 227.152344 176.304688 226.6875 176.558594 C 224.777344 177.613281 223.011719 178.941406 221.492188 180.445312 C 220.785156 181.15625 220.125 181.910156 219.507812 182.695312 C 215.355469 187.984375 213.273438 195.953125 217.023438 202.023438 C 218.820312 204.9375 221.550781 206.726562 224.601562 207.550781 C 224.683594 207.574219 224.757812 207.589844 224.839844 207.609375 C 225.273438 207.726562 225.714844 207.8125 226.167969 207.882812 L 226.171875 207.882812 C 226.886719 208.003906 227.621094 208.058594 228.355469 208.078125 C 230.496094 208.128906 232.675781 207.773438 234.710938 207.054688 C 241.8125 204.558594 247.734375 198.21875 249.238281 190.761719 C 249.878906 187.558594 249.664062 184.101562 248.199219 181.144531 C 247.339844 179.410156 246.078125 177.894531 244.546875 176.734375 Z M 214.4375 151.285156 C 214.503906 148.210938 218.699219 146.875 221.128906 146.582031 C 223.996094 146.242188 227.664062 146.6875 229.816406 148.828125 C 230.566406 149.574219 231.078125 150.589844 230.890625 151.664062 C 230.695312 152.789062 229.898438 153.675781 228.996094 154.320312 C 226.429688 156.144531 222.78125 156.441406 219.785156 155.804688 C 217.527344 155.324219 214.492188 153.980469 214.4375 151.285156 Z M 231.660156 154.710938 C 232.652344 153.636719 233.289062 152.242188 233.066406 150.757812 C 232.839844 149.230469 231.816406 147.960938 230.609375 147.058594 C 227.40625 144.671875 222.792969 144.234375 218.992188 145.109375 C 215.976562 145.808594 212.425781 147.71875 212.269531 151.171875 C 212.265625 151.210938 212.265625 151.25 212.265625 151.296875 L 212.265625 151.316406 C 212.265625 151.351562 212.265625 151.386719 212.269531 151.414062 C 212.269531 151.421875 212.269531 151.421875 212.269531 151.425781 C 212.457031 155.445312 217.441406 157.363281 220.796875 157.75 C 224.4375 158.167969 229.035156 157.554688 231.660156 154.710938 Z M 211.171875 221.726562 C 208.292969 224.953125 204.300781 226.597656 200 226.628906 C 195.414062 226.648438 191.007812 224.832031 187.347656 222.152344 C 185.25 220.625 183.15625 218.878906 181.683594 216.734375 C 180.875 215.5625 182.699219 215.042969 183.488281 215.703125 C 185.035156 217.011719 186.441406 218.492188 188.050781 219.738281 C 189.632812 220.964844 191.367188 222.070312 193.195312 222.878906 C 196.691406 224.410156 200.574219 224.910156 204.3125 224.003906 C 206.472656 223.480469 208.507812 222.578125 210.121094 221.011719 C 210.597656 220.554688 211.703125 221.128906 211.171875 221.726562 Z M 206.714844 209.0625 C 206.964844 207.84375 207.527344 206.695312 207.886719 205.5 C 208.234375 204.359375 208.484375 203.179688 208.609375 201.992188 C 208.855469 199.59375 208.660156 197.089844 208.003906 194.773438 C 207.679688 193.644531 209.511719 193.445312 209.835938 194.390625 C 210.714844 196.964844 211.082031 199.652344 210.839844 202.363281 C 210.605469 204.863281 210.085938 207.914062 208.328125 209.816406 C 207.816406 210.363281 206.546875 209.835938 206.714844 209.0625 Z M 167.957031 203.773438 C 167.835938 203.726562 167.703125 203.683594 167.578125 203.628906 C 168.976562 202.574219 170.191406 201.296875 171.242188 199.894531 C 176.238281 193.253906 177.425781 184.417969 174.515625 176.703125 C 176.023438 177.601562 177.414062 178.683594 178.605469 179.859375 C 183.394531 184.699219 186.703125 192.761719 183.066406 199.214844 C 180.039062 204.582031 173.417969 205.707031 167.957031 203.773438 Z M 165.371094 202.632812 C 160.183594 199.90625 156.058594 194.878906 154.808594 189.152344 C 154.1875 186.332031 154.238281 183.25 155.4375 180.578125 C 156.597656 177.988281 158.6875 175.964844 161.332031 174.933594 C 162.148438 174.617188 162.976562 174.394531 163.8125 174.265625 C 164.214844 174.199219 164.617188 174.152344 165.023438 174.128906 C 166.570312 174.035156 168.140625 174.222656 169.660156 174.628906 C 170.167969 174.761719 170.671875 174.921875 171.167969 175.109375 C 171.359375 175.171875 171.546875 175.246094 171.742188 175.320312 C 171.742188 175.332031 171.746094 175.351562 171.753906 175.363281 C 174.003906 180.40625 174.394531 186.160156 172.773438 191.457031 C 172.050781 193.800781 170.960938 196 169.535156 197.992188 C 168.3125 199.699219 166.871094 201.183594 165.371094 202.632812 Z M 185.820312 198.433594 C 188.460938 191.632812 185.25 183.886719 180.382812 178.96875 C 179.667969 178.257812 178.921875 177.578125 178.128906 176.957031 C 176.101562 175.367188 173.683594 174.066406 171.125 173.253906 C 171.136719 173.136719 171.148438 173.027344 171.171875 172.914062 C 171.199219 172.757812 171.242188 172.605469 171.292969 172.453125 C 171.3125 172.398438 171.335938 172.339844 171.347656 172.289062 C 171.347656 172.289062 171.34375 172.28125 171.355469 172.269531 C 171.355469 172.261719 171.359375 172.261719 171.359375 172.257812 L 171.359375 172.253906 C 171.378906 172.21875 171.386719 172.179688 171.40625 172.148438 C 171.53125 171.863281 171.640625 171.59375 171.808594 171.335938 C 171.988281 171.078125 171.753906 170.761719 171.53125 170.644531 C 171.238281 170.484375 170.90625 170.523438 170.652344 170.726562 C 170.363281 170.957031 170.074219 171.242188 169.890625 171.570312 C 169.710938 171.886719 169.585938 172.246094 169.515625 172.605469 C 169.503906 172.671875 169.492188 172.738281 169.488281 172.808594 C 167.890625 172.441406 166.265625 172.273438 164.664062 172.363281 C 164.390625 171.191406 164.492188 169.96875 164.734375 168.75 C 164.800781 168.425781 164.496094 168.1875 164.230469 168.109375 C 163.941406 168.023438 163.574219 168.101562 163.414062 168.375 C 162.699219 169.636719 162.640625 171.15625 163 172.550781 C 161.417969 172.808594 159.890625 173.339844 158.453125 174.175781 C 158.304688 174.265625 158.164062 174.351562 158.023438 174.445312 C 157.554688 173.71875 157.285156 172.886719 157.214844 172 C 157.132812 170.890625 157.382812 169.847656 157.644531 168.753906 C 157.789062 168.132812 156.75 167.871094 156.394531 168.25 C 154.582031 170.203125 155.167969 173.472656 156.691406 175.425781 L 156.691406 175.433594 C 154.828125 177.015625 153.476562 179.121094 152.785156 181.511719 C 151.839844 184.765625 152.191406 188.277344 153.277344 191.453125 C 155.121094 196.832031 159.261719 201.496094 164.351562 204.148438 C 164.816406 204.382812 165.289062 204.605469 165.761719 204.808594 C 167.019531 205.355469 168.328125 205.777344 169.660156 206.066406 C 172.925781 206.761719 176.429688 206.59375 179.496094 205.191406 C 182.40625 203.859375 184.664062 201.414062 185.820312 198.433594 Z M 109.863281 201.34375 C 108.859375 204.375 107.585938 207.292969 106.078125 210.078125 C 105.332031 209.59375 104.625 209.050781 103.960938 208.464844 C 98.503906 203.613281 96.957031 195.722656 99.730469 189.03125 C 101.90625 183.78125 106.875 179.980469 112.390625 178.863281 C 112.519531 180.140625 112.597656 181.421875 112.632812 182.707031 C 112.800781 189.015625 111.839844 195.347656 109.863281 201.34375 Z M 114.6875 178.5625 C 114.617188 177.964844 114.527344 177.363281 114.433594 176.757812 C 114.175781 175.066406 113.828125 173.382812 113.40625 171.71875 C 113.117188 170.59375 110.929688 170.75 111.25 172.074219 C 111.636719 173.675781 111.941406 175.300781 112.15625 176.933594 C 109.078125 177.355469 106.109375 178.523438 103.5625 180.335938 C 96.992188 185.019531 94.269531 193.644531 96.609375 201.320312 C 97.726562 204.964844 100.019531 208.21875 103.011719 210.566406 C 103.636719 211.050781 104.308594 211.527344 105.007812 211.964844 C 103.777344 214.042969 102.421875 216.039062 100.953125 217.964844 C 100.0625 219.128906 102.328125 220.25 103.167969 219.253906 C 104.746094 217.371094 106.15625 215.363281 107.398438 213.257812 C 107.78125 212.628906 108.140625 212.003906 108.476562 211.355469 C 108.761719 210.835938 109.035156 210.3125 109.300781 209.777344 C 114.105469 200.164062 115.96875 189.207031 114.6875 178.5625 " fill-opacity="1" fill-rule="nonzero"/></g><g clip-path="url(#id4)"><path fill="#ab0a00" d="M 240.550781 204.484375 C 237.65625 205.554688 234.648438 206.097656 231.609375 206.097656 C 226.570312 206.097656 221.835938 204.605469 217.917969 201.78125 C 212.050781 197.554688 209.117188 191.496094 209.203125 183.777344 L 209.226562 181.34375 L 209.515625 179.535156 C 211.667969 177.421875 221.539062 168.75 238.472656 168.75 C 243.773438 168.75 249.296875 169.632812 254.90625 171.375 C 255.003906 171.917969 255.117188 172.636719 255.222656 173.492188 L 255.511719 175.804688 L 255.578125 178.082031 C 255.84375 187.496094 253.449219 199.714844 240.550781 204.484375 Z M 186.765625 201.78125 C 182.851562 204.605469 178.117188 206.09375 173.078125 206.09375 C 170.035156 206.09375 167.027344 205.554688 164.136719 204.484375 C 151.234375 199.714844 148.84375 187.496094 149.109375 178.082031 L 149.171875 175.804688 L 149.460938 173.492188 C 149.566406 172.636719 149.683594 171.921875 149.777344 171.375 C 155.390625 169.632812 160.914062 168.75 166.210938 168.75 C 183.160156 168.75 193.007812 177.414062 195.167969 179.535156 L 195.457031 181.375 L 195.484375 183.777344 C 195.566406 191.5 192.632812 197.558594 186.765625 201.78125 Z M 261.503906 173.066406 L 258.664062 173.066406 C 258.386719 170.84375 258.058594 169.449219 258.042969 169.386719 L 257.875 168.710938 L 257.214844 168.488281 C 250.832031 166.371094 244.527344 165.296875 238.472656 165.296875 C 218.082031 165.296875 206.976562 177.152344 206.515625 177.660156 L 206.261719 177.9375 L 206.253906 177.988281 L 198.433594 177.988281 L 198.425781 177.9375 L 198.167969 177.660156 C 197.707031 177.152344 186.601562 165.296875 166.210938 165.296875 C 160.15625 165.296875 153.851562 166.371094 147.472656 168.488281 L 146.808594 168.710938 L 146.640625 169.386719 C 146.625 169.449219 146.300781 170.84375 146.019531 173.066406 L 143.179688 173.066406 L 143.179688 177.988281 L 145.640625 177.988281 C 145.375 187.453125 147.644531 202.070312 162.929688 207.722656 C 166.210938 208.933594 169.625 209.546875 173.078125 209.546875 C 178.851562 209.546875 184.285156 207.832031 188.800781 204.582031 C 193.710938 201.042969 199.070312 194.660156 198.949219 183.742188 L 205.734375 183.742188 C 205.617188 194.660156 210.972656 201.042969 215.882812 204.582031 C 220.398438 207.832031 225.835938 209.546875 231.609375 209.546875 C 235.0625 209.546875 238.476562 208.933594 241.757812 207.722656 C 257.039062 202.070312 259.308594 187.453125 259.042969 177.988281 L 261.503906 177.988281 L 261.503906 173.066406 " fill-opacity="1" fill-rule="nonzero"/></g></svg>